
<!-- Generator: visioncortex VTracer 0.6.4 -->
<svg version="1.1" xmlns="http://www.w3.org/2000/svg" viewBox="0 0 450 450" preserveAspectRatio="xMidYMid meet">
<path d="M0 0 C148.5 0 297 0 450 0 C450 148.5 450 297 450 450 C301.5 450 153 450 0 450 C0 301.5 0 153 0 0 Z " fill="#FEFEFE" transform="translate(0,0)"/>
<path d="M0 0 C15.591 13.188 26.134 32.58 28.344 52.93 C30.135 77.103 25.104 99.852 9.344 118.93 C3.187 125.957 -3.438 132.379 -11.656 136.93 C-12.213 137.244 -12.769 137.558 -13.342 137.882 C-33.794 149.289 -56.735 152.888 -79.719 146.992 C-95.281 142.479 -107.489 134.512 -118.656 122.93 C-119.341 122.253 -120.025 121.576 -120.73 120.879 C-136.048 104.804 -142.196 82.035 -142.08 60.371 C-141.494 39.813 -132.384 18.657 -117.82 4.094 C-82.586 -27.689 -36.873 -28.739 0 0 Z " fill="#FCD107" transform="translate(281.65625,135.0703125)"/>
<path d="M0 0 C11.55 0 23.1 0 35 0 C35.33 7.26 35.66 14.52 36 22 C37.217 19.566 37.32 17.582 37.562 14.875 C37.688 13.51 37.688 13.51 37.816 12.117 C37.877 11.419 37.938 10.72 38 10 C39.98 10 41.96 10 44 10 C44.248 10.619 44.495 11.238 44.75 11.875 C45.804 14.112 45.804 14.112 47.832 14.898 C53.991 18.028 58.738 24.672 63 30 C62.711 30.572 62.422 31.144 62.124 31.733 C61.051 33.896 60.025 36.074 59.012 38.266 C58.635 39.074 58.258 39.882 57.869 40.715 C57.089 42.388 56.313 44.062 55.541 45.738 C53.329 50.462 50.941 54.895 48.057 59.245 C46.677 61.537 45.886 63.981 45.023 66.504 C42.538 72.565 39.145 78.262 36 84 C40.628 81.943 41.998 79.525 43.999 75.132 C45.576 71.774 47.615 68.736 49.625 65.625 C55.139 56.962 60.095 48.018 65 39 C69.101 38.644 71.262 38.462 74.652 40.934 C75.406 41.76 76.161 42.586 76.938 43.438 C77.71 44.261 78.482 45.085 79.277 45.934 C81 48 81 48 81 49 C80.092 49.227 79.185 49.454 78.25 49.688 C74.533 51.189 73.335 52.831 71 56 C70.34 56 69.68 56 69 56 C68.814 56.66 68.629 57.32 68.438 58 C65.848 63.404 61.504 67.53 57.25 71.688 C55 74 53.601 76.215 52 79 C49.698 82.042 47.215 84.895 44.688 87.75 C40.926 92.016 37.445 96.476 34 101 C35.76 99.24 37.488 97.447 39.225 95.664 C43.706 91.07 48.204 86.492 52.712 81.925 C55.442 79.158 58.165 76.386 60.874 73.598 C63.492 70.904 66.127 68.227 68.774 65.561 C69.78 64.543 70.779 63.519 71.771 62.488 C73.164 61.045 74.581 59.625 75.999 58.207 C76.797 57.393 77.596 56.578 78.419 55.74 C81.813 53.452 83.987 53.543 88 54 C90.652 55.898 90.652 55.898 92.938 58.375 C94.096 59.593 94.096 59.593 95.277 60.836 C97 63 97 63 97 65 C92.71 65 88.42 65 84 65 C83.443 66.856 83.443 66.856 82.875 68.75 C80.849 74.81 77.922 80.333 75 86 C73.68 88.621 72.372 91.248 71.062 93.875 C70.449 95.102 69.836 96.328 69.223 97.555 C68.489 99.022 67.756 100.489 67 102 C64.69 106.62 62.38 111.24 60 116 C31.62 116 3.24 116 -26 116 C-29.96 107.75 -33.92 99.5 -38 91 C-40.749 85.482 -43.517 79.977 -46.32 74.486 C-47.051 73.041 -47.051 73.041 -47.797 71.566 C-48.223 70.731 -48.65 69.895 -49.089 69.033 C-50 67 -50 67 -50 65 C-54.29 65 -58.58 65 -63 65 C-61.396 61.792 -60.23 59.813 -57.875 57.25 C-57.336 56.636 -56.797 56.023 -56.242 55.391 C-52.946 53.346 -49.726 53.31 -46 54 C-43.757 55.788 -42.348 57.192 -40.609 59.387 C-39.579 60.59 -38.544 61.79 -37.506 62.986 C-36.949 63.635 -36.392 64.283 -35.818 64.952 C-32.5 68.69 -28.937 72.186 -25.391 75.707 C-24.646 76.45 -23.901 77.193 -23.134 77.959 C-20.842 80.246 -18.546 82.529 -16.25 84.812 C-14.666 86.391 -13.083 87.97 -11.5 89.549 C-7.669 93.369 -3.836 97.185 0 101 C-0.934 99.742 -1.869 98.486 -2.805 97.23 C-3.326 96.53 -3.847 95.83 -4.383 95.109 C-6.886 91.844 -9.591 88.77 -12.312 85.688 C-16.867 80.483 -21.314 75.217 -25.664 69.84 C-29.046 65.728 -32.526 61.702 -36.016 57.681 C-38.171 55.188 -40.169 52.746 -42 50 C-44.563 49.27 -44.563 49.27 -47 49 C-43.387 44.312 -43.387 44.312 -42 43 C-41.01 43 -40.02 43 -39 43 C-38.67 41.68 -38.34 40.36 -38 39 C-35.69 39 -33.38 39 -31 39 C-30.381 40.33 -30.381 40.33 -29.75 41.688 C-28.177 44.938 -28.177 44.938 -26.188 47.188 C-23.569 50.555 -21.718 54.115 -19.727 57.879 C-18.481 60.131 -17.211 62.295 -15.836 64.465 C-15.47 65.043 -15.103 65.621 -14.726 66.217 C-13.67 67.866 -12.605 69.51 -11.539 71.152 C-10 74 -10 74 -10 78 C-9.34 78 -8.68 78 -8 78 C-7.697 78.557 -7.394 79.114 -7.082 79.688 C-2.809 89.034 -2.809 89.034 4 96 C3.19 94.353 2.377 92.707 1.562 91.062 C1.11 90.146 0.658 89.229 0.191 88.285 C-0.805 86.095 -0.805 86.095 -2 85 C-2.041 83.334 -2.043 81.666 -2 80 C-2.66 80 -3.32 80 -4 80 C-4.961 78.105 -5.919 76.209 -6.875 74.312 C-7.409 73.257 -7.942 72.201 -8.492 71.113 C-10 68 -10 68 -11.07 65.23 C-11.897 62.85 -11.897 62.85 -14 61 C-15.043 58.678 -16.034 56.354 -17 54 C-17.658 52.413 -18.325 50.83 -19 49.25 C-19.309 48.513 -19.619 47.775 -19.938 47.016 C-20.892 44.951 -20.892 44.951 -22.527 43.523 C-24.384 41.603 -24.835 39.928 -25.562 37.375 C-26.201 35.016 -26.201 35.016 -27 33 C-27.99 32.505 -27.99 32.505 -29 32 C-29 31.34 -29 30.68 -29 30 C-28.237 29.423 -27.474 28.845 -26.688 28.25 C-23.839 26.175 -23.839 26.175 -22.562 23.062 C-20.646 19.307 -18.306 17.579 -15 15 C-14.175 14.072 -13.35 13.144 -12.5 12.188 C-10 10 -10 10 -6.688 9.688 C-5.801 9.791 -4.914 9.894 -4 10 C-4 12.64 -4 15.28 -4 18 C-3.34 18 -2.68 18 -2 18 C-1.34 20.64 -0.68 23.28 0 26 C0 17.42 0 8.84 0 0 Z " fill="#D1981A" transform="translate(208,154)"/>
<path d="M0 0 C11.88 0 23.76 0 36 0 C36 0.99 36 1.98 36 3 C37.578 3.278 37.578 3.278 39.188 3.562 C51.409 6.71 60.355 14.279 69 23 C69.668 23.634 70.335 24.268 71.023 24.922 C82.661 36.823 87.221 53.61 87.188 69.75 C87.15 72.835 87.082 75.916 87 79 C86.057 79.129 85.114 79.258 84.142 79.391 C78.038 81.159 74.033 86.334 69.727 90.75 C68.753 91.73 67.779 92.709 66.804 93.687 C64.252 96.252 61.715 98.833 59.181 101.417 C57.105 103.529 55.018 105.629 52.93 107.729 C50.442 110.232 47.958 112.74 45.477 115.25 C45.003 115.729 44.529 116.208 44.04 116.701 C42.705 118.053 41.373 119.409 40.042 120.766 C39.283 121.537 38.525 122.308 37.744 123.103 C35.94 124.89 35.94 124.89 35 127 C34.34 126.67 33.68 126.34 33 126 C45.359 110.868 45.359 110.868 48.527 107.262 C50.715 104.764 52.747 102.429 54.438 99.562 C57.189 95.05 60.855 91.094 64.633 87.406 C66.155 85.955 66.155 85.955 67.375 83.625 C69.238 80.615 71.438 78.43 74 76 C74.66 75.34 75.32 74.68 76 74 C78.125 73.375 78.125 73.375 80 73 C75.003 66.887 75.003 66.887 68 64 C67.01 64 66.02 64 65 64 C64.767 64.647 64.533 65.294 64.293 65.961 C62.571 70.009 60.459 73.789 58.312 77.625 C57.866 78.426 57.42 79.227 56.96 80.052 C53.986 85.35 50.858 90.509 47.531 95.594 C45.541 98.721 43.778 101.949 42.043 105.223 C41 107 41 107 39 109 C38.01 109 37.02 109 36 109 C37.355 104.518 39.158 100.647 41.438 96.562 C43.265 93.283 44.97 90.071 46.445 86.617 C48.229 82.467 50.295 78.536 52.438 74.562 C53.967 71.713 55.487 68.858 57 66 C57.582 64.923 57.582 64.923 58.176 63.824 C58.542 63.128 58.908 62.432 59.285 61.715 C59.78 60.787 59.78 60.787 60.285 59.84 C61.241 57.707 61.241 57.707 61 54 C59.166 51.71 57.351 49.653 55.312 47.562 C54.782 47.002 54.252 46.442 53.705 45.865 C52.652 44.758 51.592 43.657 50.525 42.564 C49.103 41.106 47.707 39.624 46.312 38.141 C43.549 35.582 41.702 35.258 38 35 C38.052 36.031 38.052 36.031 38.105 37.082 C38.133 37.983 38.16 38.884 38.188 39.812 C38.24 41.152 38.24 41.152 38.293 42.52 C38 45 38 45 35 48 C35 40.41 35 32.82 35 25 C23.45 25 11.9 25 0 25 C0.495 26.485 0.495 26.485 1 28 C1.082 29.846 1.107 31.695 1.098 33.543 C1.094 34.616 1.091 35.689 1.088 36.795 C1.075 38.474 1.075 38.474 1.062 40.188 C1.058 41.319 1.053 42.45 1.049 43.615 C1.037 46.41 1.021 49.205 1 52 C0.01 51.505 0.01 51.505 -1 51 C-1.594 48.351 -1.742 45.708 -2 43 C-2.66 43 -3.32 43 -4 43 C-4 40.36 -4 37.72 -4 35 C-9.602 36.208 -12.066 37.652 -16 42 C-16.866 42.639 -17.733 43.279 -18.625 43.938 C-21.407 46.354 -22.45 48.689 -24 52 C-25.562 53.875 -25.562 53.875 -27 55 C-27.66 55 -28.32 55 -29 55 C-29 55.66 -29 56.32 -29 57 C-27.515 57.495 -27.515 57.495 -26 58 C-25.051 59.996 -25.051 59.996 -24.312 62.438 C-24.061 63.241 -23.81 64.044 -23.551 64.871 C-23 67 -23 67 -23 69 C-21.515 69.495 -21.515 69.495 -20 70 C-18.973 71.785 -18.973 71.785 -18.062 74.062 C-16.741 77.232 -15.393 80.356 -13.875 83.438 C-13.563 84.076 -13.251 84.714 -12.93 85.371 C-11.987 87.188 -11.987 87.188 -10 89 C-9.254 90.77 -9.254 90.77 -8.562 92.812 C-7.643 95.402 -6.741 97.431 -5.312 99.812 C-4 102 -4 102 -4 105 C-3.34 105 -2.68 105 -2 105 C-1.752 105.825 -1.505 106.65 -1.25 107.5 C-0.019 110.947 1.483 114.041 3.195 117.266 C4 119 4 119 4 121 C-0.006 119.517 -1.2 117.412 -3.125 113.688 C-3.623 112.743 -4.12 111.798 -4.633 110.824 C-5.879 108.25 -6.979 105.67 -8 103 C-8.66 103 -9.32 103 -10 103 C-10.406 101.996 -10.812 100.992 -11.23 99.957 C-12.935 95.984 -15.047 92.362 -17.312 88.688 C-18.112 87.375 -18.912 86.063 -19.711 84.75 C-20.1 84.114 -20.489 83.479 -20.89 82.824 C-22.899 79.523 -24.85 76.187 -26.809 72.855 C-27.995 70.863 -27.995 70.863 -30 69 C-30.625 66.875 -30.625 66.875 -31 65 C-34.465 64.505 -34.465 64.505 -38 64 C-38.062 64.598 -38.124 65.196 -38.188 65.812 C-39.328 68.883 -41.178 69.486 -44 71 C-44.99 71.99 -44.99 71.99 -46 73 C-45.259 73.232 -44.518 73.464 -43.754 73.703 C-40.466 75.252 -39.144 76.877 -36.938 79.75 C-36.163 80.735 -35.388 81.72 -34.59 82.734 C-34.175 83.264 -33.759 83.793 -33.332 84.338 C-30.965 87.291 -28.477 90.139 -26 93 C-21.711 97.974 -17.518 103.013 -13.379 108.113 C-8.677 113.819 -3.83 119.402 1 125 C0.67 125.66 0.34 126.32 0 127 C-5.558 121.466 -11.113 115.928 -16.664 110.388 C-19.242 107.815 -21.821 105.243 -24.402 102.673 C-26.894 100.192 -29.384 97.709 -31.872 95.223 C-33.281 93.817 -34.692 92.413 -36.104 91.009 C-36.965 90.149 -37.825 89.288 -38.712 88.401 C-39.848 87.269 -39.848 87.269 -41.007 86.113 C-43 84 -43 84 -44.538 81.772 C-46.024 79.593 -46.024 79.593 -49.688 79.25 C-50.781 79.168 -51.874 79.085 -53 79 C-54.057 57.807 -50.253 39.907 -35.688 23.75 C-26.77 14.277 -16.612 6.16 -3.812 2.75 C-2.884 2.502 -1.956 2.255 -1 2 C-0.67 1.34 -0.34 0.68 0 0 Z " fill="#EE8F04" transform="translate(208,129)"/>
<path d="M0 0 C0 7.26 0 14.52 0 22 C-0.66 22 -1.32 22 -2 22 C-1.505 23.485 -1.505 23.485 -1 25 C-0.918 26.846 -0.893 28.695 -0.902 30.543 C-0.906 31.616 -0.909 32.689 -0.912 33.795 C-0.925 35.474 -0.925 35.474 -0.938 37.188 C-0.942 38.319 -0.947 39.45 -0.951 40.615 C-0.963 43.41 -0.979 46.205 -1 49 C-1.99 48.505 -1.99 48.505 -3 48 C-3.594 45.351 -3.742 42.708 -4 40 C-4.66 40 -5.32 40 -6 40 C-6 37.36 -6 34.72 -6 32 C-11.602 33.208 -14.066 34.652 -18 39 C-18.866 39.639 -19.733 40.279 -20.625 40.938 C-23.407 43.354 -24.45 45.689 -26 49 C-27.562 50.875 -27.562 50.875 -29 52 C-29.66 52 -30.32 52 -31 52 C-31 52.66 -31 53.32 -31 54 C-29.515 54.495 -29.515 54.495 -28 55 C-27.051 56.996 -27.051 56.996 -26.312 59.438 C-26.061 60.241 -25.81 61.044 -25.551 61.871 C-25 64 -25 64 -25 66 C-23.515 66.495 -23.515 66.495 -22 67 C-20.973 68.785 -20.973 68.785 -20.062 71.062 C-18.741 74.232 -17.393 77.356 -15.875 80.438 C-15.563 81.076 -15.251 81.714 -14.93 82.371 C-13.987 84.188 -13.987 84.188 -12 86 C-11.254 87.77 -11.254 87.77 -10.562 89.812 C-9.643 92.402 -8.741 94.431 -7.312 96.812 C-6 99 -6 99 -6 102 C-5.34 102 -4.68 102 -4 102 C-3.752 102.825 -3.505 103.65 -3.25 104.5 C-2.019 107.947 -0.517 111.041 1.195 114.266 C2 116 2 116 2 118 C-2.006 116.517 -3.2 114.412 -5.125 110.688 C-5.623 109.743 -6.12 108.798 -6.633 107.824 C-7.879 105.25 -8.979 102.67 -10 100 C-10.66 100 -11.32 100 -12 100 C-12.406 98.996 -12.812 97.992 -13.23 96.957 C-14.935 92.984 -17.047 89.362 -19.312 85.688 C-20.112 84.375 -20.912 83.063 -21.711 81.75 C-22.1 81.114 -22.489 80.479 -22.89 79.824 C-24.899 76.523 -26.85 73.187 -28.809 69.855 C-29.995 67.863 -29.995 67.863 -32 66 C-32.625 63.875 -32.625 63.875 -33 62 C-36.465 61.505 -36.465 61.505 -40 61 C-40.062 61.598 -40.124 62.196 -40.188 62.812 C-41.328 65.883 -43.178 66.486 -46 68 C-46.99 68.99 -46.99 68.99 -48 70 C-47.259 70.232 -46.518 70.464 -45.754 70.703 C-42.466 72.252 -41.144 73.877 -38.938 76.75 C-38.163 77.735 -37.388 78.72 -36.59 79.734 C-36.175 80.264 -35.759 80.793 -35.332 81.338 C-32.965 84.291 -30.477 87.139 -28 90 C-23.711 94.974 -19.518 100.013 -15.379 105.113 C-10.677 110.819 -5.83 116.402 -1 122 C-1.33 122.66 -1.66 123.32 -2 124 C-7.558 118.466 -13.113 112.928 -18.664 107.388 C-21.242 104.815 -23.821 102.243 -26.402 99.673 C-28.894 97.192 -31.384 94.709 -33.872 92.223 C-35.281 90.817 -36.692 89.413 -38.104 88.009 C-38.965 87.149 -39.825 86.288 -40.712 85.401 C-41.848 84.269 -41.848 84.269 -43.007 83.113 C-45 81 -45 81 -46.538 78.772 C-48.024 76.593 -48.024 76.593 -51.688 76.25 C-52.781 76.168 -53.874 76.085 -55 76 C-56.057 54.807 -52.253 36.907 -37.688 20.75 C-29.788 12.358 -12.823 -4.274 0 0 Z " fill="#F28E01" transform="translate(210,132)"/>
<path d="M0 0 C2 3 2 3 2.5 5.625 C2.665 6.409 2.83 7.192 3 8 C3.66 8.33 4.32 8.66 5 9 C4.67 9.66 4.34 10.32 4 11 C8.29 11 12.58 11 17 11 C19.944 16.813 22.879 22.629 25.807 28.45 C26.803 30.427 27.801 32.402 28.802 34.377 C30.245 37.226 31.68 40.079 33.113 42.934 C33.779 44.242 33.779 44.242 34.458 45.577 C37.137 50.932 39.279 56.264 41 62 C42.184 61.964 43.368 61.929 44.588 61.892 C72.105 61.087 99.489 60.993 127 62 C127.296 61.083 127.591 60.165 127.896 59.22 C129.166 55.515 130.842 52.101 132.625 48.625 C133.34 47.215 134.055 45.805 134.77 44.395 C135.136 43.673 135.503 42.952 135.881 42.209 C136.998 40.003 138.101 37.79 139.199 35.574 C139.554 34.86 139.908 34.146 140.273 33.41 C140.949 32.046 141.624 30.682 142.297 29.317 C143.655 26.587 145.047 23.922 146.625 21.312 C147.922 19.131 148.839 17.072 149.688 14.688 C150.121 13.471 150.554 12.254 151 11 C155.29 11 159.58 11 164 11 C163.01 9.02 163.01 9.02 162 7 C163.98 7.495 163.98 7.495 166 8 C166 6.02 166 4.04 166 2 C166.66 2 167.32 2 168 2 C167.052 23.416 155.446 41.223 140.48 55.758 C136.874 59.018 133.228 61.609 129 64 C128.441 64.317 127.881 64.634 127.305 64.961 C106.857 76.361 83.914 79.956 60.938 74.062 C45.375 69.549 33.167 61.582 22 50 C21.316 49.323 20.631 48.646 19.926 47.949 C9.554 37.065 -0.046 18.653 -0.125 3.5 C-0.084 2.345 -0.042 1.19 0 0 Z " fill="#FAD108" transform="translate(141,208)"/>
<path d="M0 0 C2.31 0 4.62 0 7 0 C7.412 0.887 7.825 1.774 8.25 2.688 C9.823 5.938 9.823 5.938 11.812 8.188 C14.431 11.555 16.282 15.115 18.273 18.879 C19.519 21.131 20.789 23.295 22.164 25.465 C22.714 26.332 22.714 26.332 23.274 27.217 C24.33 28.866 25.395 30.51 26.461 32.152 C28 35 28 35 28 39 C28.66 39 29.32 39 30 39 C30.278 39.508 30.555 40.015 30.841 40.538 C35.102 48.273 39.595 55.869 44.092 63.469 C44.694 64.495 45.297 65.521 45.918 66.578 C46.462 67.5 47.006 68.422 47.567 69.372 C49 72 49 72 51 77 C38.13 77 25.26 77 12 77 C10.267 73.37 8.535 69.74 6.75 66 C1.849 55.748 -3.178 45.566 -8.341 35.443 C-8.821 34.494 -9.302 33.545 -9.797 32.566 C-10.223 31.731 -10.65 30.895 -11.089 30.033 C-12 28 -12 28 -12 26 C-16.29 26 -20.58 26 -25 26 C-23.396 22.792 -22.23 20.813 -19.875 18.25 C-19.336 17.636 -18.797 17.023 -18.242 16.391 C-14.946 14.346 -11.726 14.31 -8 15 C-5.757 16.788 -4.348 18.192 -2.609 20.387 C-1.579 21.59 -0.544 22.79 0.494 23.986 C1.051 24.635 1.608 25.283 2.182 25.952 C5.5 29.69 9.063 33.186 12.609 36.707 C13.354 37.45 14.099 38.193 14.866 38.959 C17.158 41.246 19.454 43.529 21.75 45.812 C23.334 47.391 24.917 48.97 26.5 50.549 C30.331 54.369 34.164 58.185 38 62 C37.066 60.742 36.131 59.486 35.195 58.23 C34.674 57.53 34.153 56.83 33.617 56.109 C31.114 52.844 28.409 49.77 25.688 46.688 C21.133 41.483 16.686 36.217 12.336 30.84 C8.954 26.728 5.474 22.702 1.984 18.681 C-0.171 16.188 -2.169 13.746 -4 11 C-6.563 10.27 -6.563 10.27 -9 10 C-5.387 5.312 -5.387 5.312 -4 4 C-3.01 4 -2.02 4 -1 4 C-0.67 2.68 -0.34 1.36 0 0 Z " fill="#086E36" transform="translate(170,193)"/>
<path d="M0 0 C4.101 -0.356 6.262 -0.538 9.652 1.934 C10.406 2.76 11.161 3.586 11.938 4.438 C12.71 5.261 13.482 6.085 14.277 6.934 C16 9 16 9 16 10 C15.092 10.227 14.185 10.454 13.25 10.688 C9.533 12.189 8.335 13.831 6 17 C5.34 17 4.68 17 4 17 C3.722 17.99 3.722 17.99 3.438 19 C0.848 24.404 -3.496 28.53 -7.75 32.688 C-10 35 -11.399 37.215 -13 40 C-15.302 43.042 -17.785 45.895 -20.312 48.75 C-24.074 53.016 -27.555 57.476 -31 62 C-29.24 60.24 -27.512 58.447 -25.775 56.664 C-21.294 52.07 -16.796 47.492 -12.288 42.925 C-9.558 40.158 -6.835 37.386 -4.126 34.598 C-1.508 31.904 1.127 29.227 3.774 26.561 C4.78 25.543 5.779 24.519 6.771 23.488 C8.164 22.045 9.581 20.625 10.999 19.207 C12.196 17.986 12.196 17.986 13.419 16.74 C16.813 14.452 18.987 14.543 23 15 C25.652 16.898 25.652 16.898 27.938 19.375 C28.71 20.187 29.482 20.999 30.277 21.836 C32 24 32 24 32 26 C27.71 26 23.42 26 19 26 C18.629 27.238 18.257 28.475 17.875 29.75 C15.849 35.81 12.922 41.333 10 47 C8.68 49.621 7.372 52.248 6.062 54.875 C5.449 56.102 4.836 57.328 4.223 58.555 C3.489 60.022 2.756 61.489 2 63 C-0.31 67.62 -2.62 72.24 -5 77 C-17.87 77 -30.74 77 -44 77 C-42.445 73.113 -40.924 70.027 -38.77 66.5 C-38.135 65.454 -37.5 64.409 -36.846 63.332 C-36.175 62.232 -35.504 61.133 -34.812 60 C-30.218 52.43 -25.758 44.856 -21.656 37.008 C-19.263 32.662 -16.586 28.51 -13.923 24.326 C-8.929 16.416 -4.468 8.214 0 0 Z " fill="#086E36" transform="translate(273,193)"/>
<path d="M0 0 C1.98 0 3.96 0 6 0 C6.248 0.619 6.495 1.238 6.75 1.875 C7.804 4.112 7.804 4.112 9.832 4.898 C15.991 8.028 20.738 14.672 25 20 C24.711 20.572 24.422 21.144 24.124 21.733 C23.051 23.896 22.025 26.074 21.012 28.266 C20.635 29.074 20.258 29.882 19.869 30.715 C19.089 32.388 18.313 34.062 17.541 35.738 C15.337 40.445 12.962 44.861 10.082 49.19 C8.93 51.117 8.173 53.008 7.438 55.125 C6.139 58.844 4.44 61.874 2 65 C0.515 65.495 0.515 65.495 -1 66 C-1.186 67.021 -1.186 67.021 -1.375 68.062 C-2.091 71.428 -3.029 74.7 -4 78 C-4.66 78 -5.32 78 -6 78 C-6.144 78.763 -6.289 79.526 -6.438 80.312 C-7 83 -7 83 -8 86 C-8.66 86 -9.32 86 -10 86 C-10 87.32 -10 88.64 -10 90 C-10.66 90 -11.32 90 -12 90 C-12 91.32 -12 92.64 -12 94 C-12.66 94 -13.32 94 -14 94 C-14 95.32 -14 96.64 -14 98 C-14.99 98 -15.98 98 -17 98 C-17.33 99.65 -17.66 101.3 -18 103 C-19.65 103 -21.3 103 -23 103 C-23.676 99.147 -24.339 95.293 -25 91.438 C-25.191 90.351 -25.382 89.265 -25.578 88.146 C-25.759 87.086 -25.939 86.026 -26.125 84.934 C-26.293 83.965 -26.46 82.996 -26.633 81.998 C-27 79 -27 79 -27 72 C-22.38 72 -17.76 72 -13 72 C-12.67 70.68 -12.34 69.36 -12 68 C-11.34 68 -10.68 68 -10 68 C-10.023 67.374 -10.046 66.747 -10.07 66.102 C-10.088 65.284 -10.106 64.467 -10.125 63.625 C-10.148 62.813 -10.171 62.001 -10.195 61.164 C-10 59 -10 59 -8 57 C-7.576 54.864 -7.576 54.864 -7.438 52.5 C-7.095 48.189 -7.095 48.189 -6 46 C-5.778 44.044 -5.608 42.081 -5.465 40.117 C-5.378 38.951 -5.291 37.784 -5.201 36.582 C-5.114 35.359 -5.027 34.135 -4.938 32.875 C-4.847 31.644 -4.756 30.413 -4.662 29.145 C-4.438 26.097 -4.217 23.048 -4 20 C-3.34 20 -2.68 20 -2 20 C-2.021 18.721 -2.041 17.442 -2.062 16.125 C-2.125 12.25 -2.125 12.25 -1 10 C-0.774 8.296 -0.591 6.587 -0.438 4.875 C-0.354 3.965 -0.27 3.055 -0.184 2.117 C-0.093 1.069 -0.093 1.069 0 0 Z " fill="#71B53A" transform="translate(246,164)"/>
<path d="M0 0 C1.32 0 2.64 0 4 0 C4.11 0.655 4.219 1.31 4.332 1.984 C5.184 6.886 6.148 11.694 7.438 16.5 C9.091 22.854 10.059 29.275 10.998 35.766 C11.24 39.708 11.24 39.708 13 43 C13.072 44.853 13.084 46.708 13.062 48.562 C13.053 49.574 13.044 50.586 13.035 51.629 C13.024 52.411 13.012 53.194 13 54 C13.66 54 14.32 54 15 54 C15.056 55.216 15.056 55.216 15.113 56.457 C15.439 61.943 15.856 67.052 17.5 72.312 C19.654 79.394 19.733 86.652 20 94 C17 92 17 92 16.488 90.055 C16.326 88.036 16.163 86.018 16 84 C15.34 84 14.68 84 14 84 C13.326 82.733 12.661 81.461 12 80.188 C11.629 79.48 11.257 78.772 10.875 78.043 C10 76 10 76 10 73 C9.34 73 8.68 73 8 73 C8 71.35 8 69.7 8 68 C7.34 68 6.68 68 6 68 C6 67.34 6 66.68 6 66 C4.515 65.505 4.515 65.505 3 65 C1.902 63.328 1.902 63.328 0.938 61.25 C0.598 60.531 0.259 59.811 -0.09 59.07 C-0.807 57.438 -1.475 55.785 -2.125 54.125 C-2.909 51.835 -2.909 51.835 -5 50 C-6.043 47.678 -7.034 45.354 -8 43 C-8.658 41.413 -9.325 39.83 -10 38.25 C-10.309 37.513 -10.619 36.775 -10.938 36.016 C-11.892 33.951 -11.892 33.951 -13.527 32.523 C-15.384 30.603 -15.835 28.928 -16.562 26.375 C-17.201 24.016 -17.201 24.016 -18 22 C-18.66 21.67 -19.32 21.34 -20 21 C-20 20.34 -20 19.68 -20 19 C-19.299 18.443 -18.597 17.886 -17.875 17.312 C-15.521 15.419 -13.934 13.806 -12.062 11.5 C-9.4 8.282 -6.518 6.267 -3 4 C-2.464 3.257 -1.928 2.515 -1.375 1.75 C-0.921 1.173 -0.468 0.595 0 0 Z " fill="#71B53A" transform="translate(199,165)"/>
<path d="M0 0 C11.55 0 23.1 0 35 0 C34.67 9.24 34.34 18.48 34 28 C23.44 28 12.88 28 2 28 C2 19.75 2 11.5 2 3 C1.34 3 0.68 3 0 3 C0 2.01 0 1.02 0 0 Z " fill="#036D39" transform="translate(208,154)"/>
<path d="M0 0 C2 3 2 3 2.5 5.625 C2.665 6.409 2.83 7.192 3 8 C3.66 8.33 4.32 8.66 5 9 C4.67 9.66 4.34 10.32 4 11 C8.29 11 12.58 11 17 11 C19.944 16.813 22.879 22.629 25.807 28.45 C26.803 30.427 27.801 32.402 28.802 34.377 C30.245 37.226 31.68 40.079 33.113 42.934 C33.779 44.242 33.779 44.242 34.458 45.577 C34.879 46.417 35.299 47.257 35.732 48.123 C36.098 48.849 36.464 49.575 36.842 50.323 C38.482 54.115 39.693 58.08 41 62 C54.2 62 67.4 62 81 62 C81 62.33 81 62.66 81 63 C68.79 63.33 56.58 63.66 44 64 C44 64.66 44 65.32 44 66 C27.1 60.035 14.744 43.433 7 28 C2.635 18.706 -0.369 10.344 0 0 Z " fill="#F5D00A" transform="translate(141,208)"/>
<path d="M0 0 C5.75 -0.125 5.75 -0.125 8 1 C10.624 1.157 13.225 1.258 15.852 1.316 C16.626 1.337 17.4 1.358 18.197 1.379 C20.673 1.445 23.149 1.504 25.625 1.562 C27.302 1.606 28.979 1.649 30.656 1.693 C34.771 1.801 38.885 1.902 43 2 C43 2.66 43 3.32 43 4 C42.01 4 41.02 4 40 4 C40 4.66 40 5.32 40 6 C38.866 6.454 37.731 6.908 36.562 7.375 C32.953 8.571 32.953 8.571 32 11 C12.332 18.844 -11.945 16.969 -31.261 9.076 C-35.419 7.19 -35.419 7.19 -37 6 C-37.33 4.68 -37.66 3.36 -38 2 C-25.46 2 -12.92 2 0 2 C0 1.34 0 0.68 0 0 Z " fill="#FDD103" transform="translate(222,269)"/>
<path d="M0 0 C11.55 0 23.1 0 35 0 C34.856 3.774 34.711 7.549 34.562 11.438 C34.519 12.629 34.476 13.821 34.432 15.049 C34.394 15.98 34.356 16.911 34.316 17.871 C34.28 18.829 34.243 19.788 34.205 20.775 C34 23 34 23 33 24 C30.708 24.088 28.414 24.107 26.121 24.098 C25.091 24.096 25.091 24.096 24.04 24.093 C21.839 24.088 19.638 24.075 17.438 24.062 C15.949 24.057 14.46 24.053 12.971 24.049 C9.314 24.039 5.657 24.019 2 24 C2 17.07 2 10.14 2 3 C1.34 3 0.68 3 0 3 C0 2.01 0 1.02 0 0 Z " fill="#046D36" transform="translate(208,129)"/>
<path d="M0 0 C2.31 0 4.62 0 7 0 C7.412 0.887 7.825 1.774 8.25 2.688 C9.823 5.938 9.823 5.938 11.812 8.188 C14.431 11.555 16.282 15.115 18.273 18.879 C19.519 21.131 20.789 23.295 22.164 25.465 C22.714 26.332 22.714 26.332 23.274 27.217 C24.33 28.866 25.395 30.51 26.461 32.152 C28 35 28 35 28 39 C28.66 39 29.32 39 30 39 C30.276 39.504 30.552 40.008 30.837 40.527 C34.554 47.269 38.424 53.918 42.312 60.562 C42.958 61.667 43.603 62.771 44.268 63.908 C45.844 66.606 47.422 69.303 49 72 C46 72 46 72 44.246 70.645 C43.649 70.04 43.052 69.435 42.438 68.812 C41.838 68.221 41.239 67.629 40.621 67.02 C39 65 39 65 38.125 62.668 C36.596 59.042 34.15 56.403 31.562 53.5 C30.474 52.254 29.385 51.008 28.297 49.762 C27.746 49.134 27.195 48.507 26.627 47.861 C24.158 45.037 21.733 42.178 19.312 39.312 C18.86 38.777 18.407 38.242 17.94 37.69 C15.057 34.274 12.206 30.834 9.375 27.375 C8.656 26.498 7.936 25.622 7.195 24.719 C5.646 22.8 4.122 20.86 2.617 18.906 C1.836 17.906 1.055 16.906 0.25 15.875 C-0.446 14.965 -1.142 14.055 -1.859 13.117 C-4.273 10.73 -5.668 10.291 -9 10 C-5.387 5.312 -5.387 5.312 -4 4 C-3.01 4 -2.02 4 -1 4 C-0.67 2.68 -0.34 1.36 0 0 Z " fill="#0F8148" transform="translate(170,193)"/>
<path d="M0 0 C4.101 -0.356 6.262 -0.538 9.652 1.934 C10.406 2.76 11.161 3.586 11.938 4.438 C12.71 5.261 13.482 6.085 14.277 6.934 C16 9 16 9 16 10 C15.092 10.227 14.185 10.454 13.25 10.688 C9.533 12.189 8.335 13.831 6 17 C5.34 17 4.68 17 4 17 C3.722 17.99 3.722 17.99 3.438 19 C0.848 24.404 -3.496 28.53 -7.75 32.688 C-10 35 -11.399 37.215 -13 40 C-15.302 43.042 -17.785 45.895 -20.312 48.75 C-24.72 53.764 -29.141 58.877 -32.562 64.625 C-34.635 68.049 -37.118 71.214 -40 74 C-40.66 74 -41.32 74 -42 74 C-40.341 69.44 -38.068 65.335 -35.688 61.125 C-35.12 60.102 -35.12 60.102 -34.541 59.059 C-32.64 55.682 -30.665 52.46 -28.375 49.332 C-26.325 46.53 -24.768 43.725 -23.312 40.562 C-20.909 35.614 -18.207 31.002 -15.25 26.375 C-9.771 17.798 -4.862 8.938 0 0 Z " fill="#0F8048" transform="translate(273,193)"/>
<path d="M0 0 C9.9 0 19.8 0 30 0 C29.67 1.98 29.34 3.96 29 6 C28.745 7.653 28.493 9.307 28.246 10.961 C28.127 11.758 28.007 12.555 27.885 13.376 C27.737 14.366 27.589 15.355 27.438 16.375 C26.963 19.551 26.489 22.727 26 26 C18.74 26 11.48 26 4 26 C2.662 21.319 1.594 17.181 0.875 12.438 C0.707 11.364 0.54 10.29 0.367 9.184 C0 6 0 6 0 0 Z " fill="#026E3A" transform="translate(211,183)"/>
<path d="M0 0 C6.93 0 13.86 0 21 0 C20.448 7.817 19.517 15.312 18 23 C13.05 23 8.1 23 3 23 C0.674 15.403 0.423 7.898 0 0 Z " fill="#046D39" transform="translate(215,211)"/>
<path d="M0 0 C1.32 0.33 2.64 0.66 4 1 C3.34 1.66 2.68 2.32 2 3 C3.112 3.348 3.112 3.348 4.246 3.703 C7.534 5.252 8.856 6.877 11.062 9.75 C11.837 10.735 12.612 11.72 13.41 12.734 C13.825 13.264 14.241 13.793 14.668 14.338 C17.035 17.291 19.523 20.139 22 23 C26.289 27.974 30.482 33.013 34.621 38.113 C39.323 43.819 44.17 49.402 49 55 C48.505 55.99 48.505 55.99 48 57 C42.442 51.466 36.887 45.928 31.336 40.388 C28.758 37.815 26.179 35.243 23.598 32.673 C21.106 30.192 18.616 27.709 16.128 25.223 C14.719 23.817 13.308 22.413 11.896 21.009 C11.035 20.149 10.175 19.288 9.288 18.401 C8.531 17.646 7.773 16.891 6.993 16.113 C5 14 5 14 3.462 11.772 C1.976 9.593 1.976 9.593 -1.688 9.25 C-2.781 9.167 -3.874 9.085 -5 9 C-4.67 8.01 -4.34 7.02 -4 6 C-3.01 6 -2.02 6 -1 6 C-0.67 4.02 -0.34 2.04 0 0 Z " fill="#D3941B" transform="translate(160,199)"/>
<path d="M0 0 C1.32 0.33 2.64 0.66 4 1 C4 2.32 4 3.64 4 5 C5.92 6.774 5.92 6.774 8 8 C6.585 8.193 6.585 8.193 5.142 8.391 C-0.962 10.159 -4.967 15.334 -9.273 19.75 C-10.247 20.73 -11.221 21.709 -12.196 22.687 C-14.748 25.252 -17.285 27.833 -19.819 30.417 C-21.895 32.529 -23.982 34.629 -26.07 36.729 C-28.558 39.232 -31.042 41.74 -33.523 44.25 C-33.997 44.729 -34.471 45.208 -34.96 45.701 C-36.295 47.053 -37.627 48.409 -38.958 49.766 C-39.717 50.537 -40.475 51.308 -41.256 52.103 C-43.06 53.89 -43.06 53.89 -44 56 C-44.66 55.67 -45.32 55.34 -46 55 C-33.641 39.868 -33.641 39.868 -30.473 36.262 C-28.285 33.764 -26.253 31.429 -24.562 28.562 C-21.811 24.05 -18.145 20.094 -14.367 16.406 C-12.845 14.955 -12.845 14.955 -11.625 12.625 C-9.762 9.615 -7.562 7.43 -5 5 C-4.34 4.34 -3.68 3.68 -3 3 C-0.875 2.375 -0.875 2.375 1 2 C0.505 1.01 0.505 1.01 0 0 Z " fill="#C4921B" transform="translate(287,200)"/>
<path d="M0 0 C0.66 0.33 1.32 0.66 2 1 C2.625 4.062 2.625 4.062 3 7 C3.99 7.33 4.98 7.66 6 8 C7.027 9.785 7.027 9.785 7.938 12.062 C9.259 15.232 10.607 18.356 12.125 21.438 C12.437 22.076 12.749 22.714 13.07 23.371 C14.013 25.188 14.013 25.188 16 27 C16.746 28.77 16.746 28.77 17.438 30.812 C18.357 33.402 19.259 35.431 20.688 37.812 C22 40 22 40 22 43 C22.66 43 23.32 43 24 43 C24.248 43.825 24.495 44.65 24.75 45.5 C25.981 48.947 27.483 52.041 29.195 55.266 C30 57 30 57 30 59 C25.994 57.517 24.8 55.412 22.875 51.688 C22.377 50.743 21.88 49.798 21.367 48.824 C20.121 46.25 19.021 43.67 18 41 C17.34 41 16.68 41 16 41 C15.594 39.996 15.188 38.992 14.77 37.957 C13.065 33.984 10.953 30.362 8.688 26.688 C7.888 25.375 7.088 24.063 6.289 22.75 C5.9 22.114 5.511 21.479 5.11 20.824 C3.101 17.523 1.15 14.187 -0.809 10.855 C-1.995 8.863 -1.995 8.863 -4 7 C-4.625 4.875 -4.625 4.875 -5 3 C-7.31 2.67 -9.62 2.34 -12 2 C-12.062 2.619 -12.124 3.238 -12.188 3.875 C-13 6 -13 6 -15.562 7.25 C-16.367 7.498 -17.171 7.745 -18 8 C-16.817 4.45 -16.032 3.198 -13 1 C-9.971 0.661 -7.035 0.767 -4 1 C-3.67 2.32 -3.34 3.64 -3 5 C-1.68 5 -0.36 5 1 5 C0.67 3.35 0.34 1.7 0 0 Z " fill="#D39718" transform="translate(182,191)"/>
<path d="M0 0 C0 3.694 -1.282 5.778 -3 9 C-1.68 8.67 -0.36 8.34 1 8 C-1.535 13.224 -4.503 18.214 -7.395 23.245 C-8.09 24.457 -8.784 25.671 -9.475 26.885 C-10.477 28.646 -11.486 30.403 -12.496 32.16 C-13.096 33.208 -13.696 34.256 -14.314 35.336 C-16.746 39.179 -17.831 40.725 -22.316 41.781 C-26 41 -26 41 -27.597 39.207 C-29.184 36.694 -30.579 34.143 -31.938 31.5 C-32.431 30.594 -32.924 29.688 -33.432 28.754 C-34.646 26.514 -35.833 24.264 -37 22 C-36.34 21.67 -35.68 21.34 -35 21 C-35.81 19.353 -36.623 17.707 -37.438 16.062 C-37.89 15.146 -38.342 14.229 -38.809 13.285 C-39.805 11.095 -39.805 11.095 -41 10 C-41.041 8.334 -41.043 6.666 -41 5 C-41.66 5 -42.32 5 -43 5 C-42.67 4.01 -42.34 3.02 -42 2 C-42 2.66 -42 3.32 -42 4 C-41.34 4 -40.68 4 -40 4 C-40 5.65 -40 7.3 -40 9 C-39.34 9 -38.68 9 -38 9 C-37.329 10.456 -36.663 11.915 -36 13.375 C-35.443 14.593 -35.443 14.593 -34.875 15.836 C-34 18 -34 18 -34 20 C-33.34 20 -32.68 20 -32 20 C-31.01 22.97 -30.02 25.94 -29 29 C-29.141 26.583 -29.288 24.166 -29.438 21.75 C-29.477 21.068 -29.516 20.386 -29.557 19.684 C-29.767 16.356 -30.019 13.197 -31 10 C-30.34 10 -29.68 10 -29 10 C-28.67 9.01 -28.34 8.02 -28 7 C-27.326 11.04 -26.662 15.083 -26 19.125 C-25.809 20.267 -25.618 21.409 -25.422 22.586 C-25.151 24.249 -25.151 24.249 -24.875 25.945 C-24.707 26.961 -24.54 27.977 -24.367 29.024 C-23.994 32.048 -23.937 34.957 -24 38 C-21.525 37.505 -21.525 37.505 -19 37 C-18.67 35.68 -18.34 34.36 -18 33 C-17.01 33 -16.02 33 -15 33 C-15 31.68 -15 30.36 -15 29 C-14.34 29 -13.68 29 -13 29 C-13 27.68 -13 26.36 -13 25 C-12.34 25 -11.68 25 -11 25 C-11 23.68 -11 22.36 -11 21 C-10.34 21 -9.68 21 -9 21 C-8.856 20.423 -8.711 19.845 -8.562 19.25 C-8.042 17.167 -7.521 15.083 -7 13 C-6.34 13 -5.68 13 -5 13 C-4.814 11.422 -4.814 11.422 -4.625 9.812 C-4.085 6.521 -3.483 3.965 -2 1 C-1.34 0.67 -0.68 0.34 0 0 Z " fill="#A1A52D" transform="translate(247,229)"/>
<path d="M0 0 C0.66 0 1.32 0 2 0 C2.323 0.742 2.645 1.483 2.978 2.247 C4.441 5.604 5.908 8.958 7.375 12.312 C7.883 13.48 8.391 14.647 8.914 15.85 C9.404 16.968 9.894 18.086 10.398 19.238 C10.849 20.27 11.299 21.302 11.763 22.365 C12.986 25.14 12.986 25.14 15 28 C10.71 28 6.42 28 2 28 C2.99 27.01 3.98 26.02 5 25 C4.505 22.525 4.505 22.525 4 20 C0.37 20 -3.26 20 -7 20 C-7.33 22.31 -7.66 24.62 -8 27 C-7.01 27.33 -6.02 27.66 -5 28 C-7.97 28 -10.94 28 -14 28 C-13.393 27.289 -12.786 26.578 -12.161 25.845 C-10.072 23.095 -8.766 20.647 -7.422 17.48 C-6.984 16.459 -6.545 15.437 -6.094 14.385 C-5.65 13.33 -5.207 12.275 -4.75 11.188 C-4.062 9.576 -4.062 9.576 -3.359 7.932 C-2.233 5.291 -1.113 2.647 0 0 Z " fill="#1C1F20" transform="translate(259,288)"/>
<path d="M0 0 C4.29 0 8.58 0 13 0 C12.444 10.561 10.996 20.631 9 31 C7.35 31 5.7 31 4 31 C3.324 27.147 2.661 23.293 2 19.438 C1.809 18.351 1.618 17.265 1.422 16.146 C0.493 10.691 -0.254 5.535 0 0 Z " fill="#116B30" transform="translate(219,236)"/>
<path d="M0 0 C6 7.4 6 7.4 6 12 C6.66 12 7.32 12 8 12 C8.276 12.504 8.552 13.008 8.837 13.527 C12.554 20.269 16.424 26.918 20.312 33.562 C21.28 35.219 21.28 35.219 22.268 36.908 C23.844 39.606 25.422 42.303 27 45 C24 45 24 45 22.246 43.645 C21.351 42.738 21.351 42.738 20.438 41.812 C19.838 41.221 19.239 40.629 18.621 40.02 C17 38 17 38 16.133 35.676 C14.56 31.96 12.106 29.364 9.438 26.375 C8.357 25.142 7.278 23.907 6.199 22.672 C5.662 22.059 5.125 21.446 4.572 20.814 C0.946 16.628 -2.519 12.307 -6 8 C-4.448 4.672 -2.694 2.514 0 0 Z " fill="#1A7F43" transform="translate(192,220)"/>
<path d="M0 0 C1.096 0.102 2.191 0.204 3.32 0.309 C4.163 0.392 5.006 0.476 5.875 0.562 C5.875 3.202 5.875 5.842 5.875 8.562 C5.236 7.758 4.596 6.954 3.938 6.125 C2.469 4.287 2.469 4.287 0.875 2.562 C-1.458 2.522 -3.792 2.52 -6.125 2.562 C-6.455 3.882 -6.785 5.202 -7.125 6.562 C-6.617 6.865 -6.109 7.168 -5.586 7.48 C6.072 14.576 6.072 14.576 8.062 19.5 C7.861 22.795 7.268 24.949 5.02 27.438 C0.048 30.046 -6.655 28.934 -12.125 28.562 C-12.125 25.262 -12.125 21.962 -12.125 18.562 C-10.872 20.442 -9.639 22.337 -8.438 24.25 C-6.225 26.961 -6.225 26.961 -2.375 26.875 C-1.303 26.772 -0.23 26.669 0.875 26.562 C1.205 24.913 1.535 23.262 1.875 21.562 C1.272 21.176 0.668 20.789 0.047 20.391 C-10.448 13.552 -10.448 13.552 -12.125 8.625 C-12.125 4.643 -10.891 3.329 -8.125 0.562 C-5.289 -0.855 -3.134 -0.3 0 0 Z " fill="#1B1F1F" transform="translate(144.125,287.4375)"/>
<path d="M0 0 C2 2 2 2 2.195 5.695 C2.182 7.172 2.158 8.649 2.125 10.125 C2.116 10.879 2.107 11.633 2.098 12.41 C2.074 14.274 2.038 16.137 2 18 C2.66 18.33 3.32 18.66 4 19 C1.03 19 -1.94 19 -5 19 C-4.67 13.39 -4.34 7.78 -4 2 C-5.98 2.99 -5.98 2.99 -8 4 C-8.027 6.125 -8.046 8.25 -8.062 10.375 C-8.074 11.558 -8.086 12.742 -8.098 13.961 C-8.215 16.919 -8.215 16.919 -7 19 C-9.97 19 -12.94 19 -16 19 C-15.67 12.73 -15.34 6.46 -15 0 C-12.333 0 -9.667 0 -7 0 C-4.294 -1.353 -2.867 -0.788 0 0 Z " fill="#212425" transform="translate(193,297)"/>
<path d="M0 0 C1.236 -0.005 1.236 -0.005 2.496 -0.01 C8.608 0.045 8.608 0.045 10.875 2.312 C10.71 3.261 10.545 4.21 10.375 5.188 C9.842 8.519 10.076 9.56 11.875 12.312 C10 12 10 12 7.875 11.312 C7.215 10.322 6.555 9.332 5.875 8.312 C5.545 9.632 5.215 10.952 4.875 12.312 C3.555 12.312 2.235 12.312 0.875 12.312 C0.545 11.322 0.215 10.332 -0.125 9.312 C-0.496 9.808 -0.868 10.303 -1.25 10.812 C-3.125 12.312 -3.125 12.312 -6.062 12.688 C-9.475 12.27 -10.873 11.911 -13.125 9.312 C-13.625 6.312 -13.625 6.312 -13.125 3.312 C-9.562 -0.755 -4.99 -0.099 0 0 Z " fill="#E9E9E9" transform="translate(138.125,323.6875)"/>
<path d="M0 0 C2.172 1.543 2.172 1.543 4 4 C4.449 6.706 4.694 9.042 4.75 11.75 C4.78 12.447 4.809 13.145 4.84 13.863 C4.91 15.575 4.957 17.287 5 19 C3.35 19.33 1.7 19.66 0 20 C-0.33 19.01 -0.66 18.02 -1 17 C-2.083 17.773 -2.083 17.773 -3.188 18.562 C-6.42 20.214 -7.616 20.064 -11 19 C-11.33 17.35 -11.66 15.7 -12 14 C-7.375 10.146 -7.375 10.146 -4.75 9.125 C-2.63 8.048 -2.63 8.048 -2.25 4.875 C-2.168 3.926 -2.085 2.978 -2 2 C-3.65 2 -5.3 2 -7 2 C-6.67 3.65 -6.34 5.3 -6 7 C-7.65 7.33 -9.3 7.66 -11 8 C-11.25 5.688 -11.25 5.688 -11 3 C-7.874 -0.626 -4.561 -0.57 0 0 Z " fill="#313232" transform="translate(313,296)"/>
<path d="M0 0 C2.168 1.078 2.168 1.078 4 3 C4.391 6.355 4.391 6.355 4.25 10.188 C4.214 11.46 4.178 12.732 4.141 14.043 C4.071 15.507 4.071 15.507 4 17 C4.99 17.33 5.98 17.66 7 18 C5 20 5 20 2.5 20.25 C0 20 0 20 -2 18 C-2.99 18.66 -3.98 19.32 -5 20 C-7.625 20.188 -7.625 20.188 -10 20 C-11 19 -11 19 -11.305 16.645 C-11 14 -11 14 -9.32 12.199 C-8.596 11.7 -7.871 11.201 -7.125 10.688 C-6.406 10.176 -5.686 9.664 -4.945 9.137 C-3 8 -3 8 -1 8 C-1.33 6.35 -1.66 4.7 -2 3 C-3.65 2.67 -5.3 2.34 -7 2 C-6.34 3.65 -5.68 5.3 -5 7 C-6.65 7.33 -8.3 7.66 -10 8 C-10.33 6.68 -10.66 5.36 -11 4 C-7.306 0.523 -5.104 -0.76 0 0 Z " fill="#0B0E0F" transform="translate(226,296)"/>
<path d="M0 0 C2.172 1.074 2.172 1.074 4 3 C4.391 6.355 4.391 6.355 4.25 10.188 C4.214 11.46 4.178 12.732 4.141 14.043 C4.071 15.507 4.071 15.507 4 17 C4.99 17.33 5.98 17.66 7 18 C5 20 5 20 2.5 20.25 C0 20 0 20 -2 18 C-2.99 18.66 -3.98 19.32 -5 20 C-7.625 20.188 -7.625 20.188 -10 20 C-11 19 -11 19 -11.438 16.75 C-11 14 -11 14 -8.25 11.25 C-4.067 8.354 -4.067 8.354 -1 8 C-1.33 6.35 -1.66 4.7 -2 3 C-3.65 2.67 -5.3 2.34 -7 2 C-6.67 3.98 -6.34 5.96 -6 8 C-7.65 7.67 -9.3 7.34 -11 7 C-10.638 4.376 -10.173 3.18 -8.312 1.25 C-5.291 -0.383 -3.393 -0.424 0 0 Z " fill="#191C1D" transform="translate(167,296)"/>
<path d="M0 0 C2.562 0.188 2.562 0.188 4.562 2.188 C4.844 4.878 5.028 7.49 5.125 10.188 C5.131 15.345 5.131 15.345 6.562 20.188 C3.592 20.188 0.623 20.188 -2.438 20.188 C-2.108 19.527 -1.777 18.868 -1.438 18.188 C-1.206 15.641 -1.019 13.114 -0.875 10.562 C-0.832 9.856 -0.789 9.15 -0.744 8.422 C-0.638 6.677 -0.537 4.932 -0.438 3.188 C-2.087 3.848 -3.738 4.507 -5.438 5.188 C-5.464 7.312 -5.484 9.437 -5.5 11.562 C-5.512 12.746 -5.523 13.929 -5.535 15.148 C-5.652 18.107 -5.652 18.107 -4.438 20.188 C-7.408 20.188 -10.377 20.188 -13.438 20.188 C-13.108 19.527 -12.777 18.868 -12.438 18.188 C-12.366 15.304 -12.345 12.445 -12.375 9.562 C-12.38 8.761 -12.384 7.959 -12.389 7.133 C-12.4 5.151 -12.418 3.169 -12.438 1.188 C-11.799 1.199 -11.161 1.211 -10.504 1.223 C-9.678 1.232 -8.851 1.241 -8 1.25 C-6.764 1.267 -6.764 1.267 -5.504 1.285 C-2.925 1.163 -2.691 0.207 0 0 Z " fill="#111415" transform="translate(290.4375,295.8125)"/>
<path d="M0 0 C0.66 0.33 1.32 0.66 2 1 C-9.951 22.153 -9.951 22.153 -15.539 30.699 C-17.503 33.791 -19.243 36.987 -20.957 40.223 C-22 42 -22 42 -24 44 C-24.99 44 -25.98 44 -27 44 C-25.645 39.518 -23.842 35.647 -21.562 31.562 C-19.089 27.123 -16.989 22.675 -15 18 C-13.642 15.168 -12.23 12.365 -10.812 9.562 C-10.26 8.465 -10.26 8.465 -9.697 7.346 C-8.8 5.563 -7.9 3.781 -7 2 C-6.319 2.743 -6.319 2.743 -5.625 3.5 C-4.124 5.226 -4.124 5.226 -2 5 C-1.34 3.35 -0.68 1.7 0 0 Z " fill="#E69309" transform="translate(271,194)"/>
<path d="M0 0 C0.938 3.067 1.018 5.45 0.625 8.625 C0.535 9.401 0.445 10.177 0.352 10.977 C0 13 0 13 -1 15 C-1.27 17.299 -1.445 19.598 -1.621 21.906 C-2 24 -2 24 -4 26 C-4.46 28.203 -4.46 28.203 -4.625 30.625 C-4.7 31.442 -4.775 32.26 -4.852 33.102 C-4.925 34.041 -4.925 34.041 -5 35 C-5.66 35 -6.32 35 -7 35 C-7.33 35.66 -7.66 36.32 -8 37 C-7.69 34.104 -7.377 31.208 -7.062 28.312 C-6.975 27.496 -6.888 26.679 -6.799 25.838 C-6.712 25.042 -6.625 24.246 -6.535 23.426 C-6.457 22.698 -6.378 21.97 -6.297 21.22 C-5.973 18.796 -5.48 16.398 -5 14 C-12.26 14 -19.52 14 -27 14 C-26.67 13.01 -26.34 12.02 -26 11 C-18.74 11.33 -11.48 11.66 -4 12 C-4 10.02 -4 8.04 -4 6 C-3.67 7.32 -3.34 8.64 -3 10 C-2.34 10 -1.68 10 -1 10 C-1.021 8.907 -1.041 7.814 -1.062 6.688 C-1 3 -1 3 0 0 Z " fill="#8CA732" transform="translate(241,197)"/>
<path d="M0 0 C0.33 0 0.66 0 1 0 C1 7.26 1 14.52 1 22 C10.57 22.33 20.14 22.66 30 23 C30 15.41 30 7.82 30 0 C30.66 0 31.32 0 32 0 C32 8.25 32 16.5 32 25 C21.44 25 10.88 25 0 25 C0 16.75 0 8.5 0 0 Z " fill="#387029" transform="translate(210,157)"/>
<path d="M0 0 C0.33 0 0.66 0 1 0 C1.33 8.91 1.66 17.82 2 27 C1.34 27 0.68 27 0 27 C0.023 27.822 0.046 28.645 0.07 29.492 C0.185 36.612 -0.253 43.092 -2 50 C-2.66 50 -3.32 50 -4 50 C-4.235 43.002 -3.834 36.761 -2 30 C-1.67 28.68 -1.34 27.36 -1 26 C-10.9 26 -20.8 26 -31 26 C-30.67 29.3 -30.34 32.6 -30 36 C-30.66 35.34 -31.32 34.68 -32 34 C-32 31.03 -32 28.06 -32 25 C-21.44 25 -10.88 25 0 25 C0 16.75 0 8.5 0 0 Z " fill="#BD9E33" transform="translate(242,157)"/>
<path d="M0 0 C0 3.694 -1.282 5.778 -3 9 C-1.68 8.67 -0.36 8.34 1 8 C-1.535 13.224 -4.503 18.214 -7.395 23.245 C-8.09 24.457 -8.784 25.671 -9.475 26.885 C-10.477 28.646 -11.486 30.403 -12.496 32.16 C-13.396 33.732 -13.396 33.732 -14.314 35.336 C-16.881 39.393 -16.881 39.393 -19 41 C-22.688 41.188 -22.688 41.188 -26 41 C-26 39.68 -26 38.36 -26 37 C-23.69 37 -21.38 37 -19 37 C-18.67 35.68 -18.34 34.36 -18 33 C-17.01 33 -16.02 33 -15 33 C-15 31.68 -15 30.36 -15 29 C-14.34 29 -13.68 29 -13 29 C-13 27.68 -13 26.36 -13 25 C-12.34 25 -11.68 25 -11 25 C-11 23.68 -11 22.36 -11 21 C-10.34 21 -9.68 21 -9 21 C-8.856 20.423 -8.711 19.845 -8.562 19.25 C-8.042 17.167 -7.521 15.083 -7 13 C-6.34 13 -5.68 13 -5 13 C-4.876 11.948 -4.752 10.896 -4.625 9.812 C-4.085 6.521 -3.483 3.965 -2 1 C-1.34 0.67 -0.68 0.34 0 0 Z " fill="#BB9E27" transform="translate(247,229)"/>
<path d="M0 0 C0 1.98 0 3.96 0 6 C1.65 6 3.3 6 5 6 C3.02 6.99 3.02 6.99 1 8 C1 12.62 1 17.24 1 22 C2.32 21.67 3.64 21.34 5 21 C4.67 21.99 4.34 22.98 4 24 C0.625 24.625 0.625 24.625 -3 25 C-5 23 -5 23 -5.195 19.305 C-5.182 17.828 -5.158 16.351 -5.125 14.875 C-5.111 13.744 -5.111 13.744 -5.098 12.59 C-5.074 10.726 -5.038 8.863 -5 7 C-5.66 6.67 -6.32 6.34 -7 6 C-6.024 4.997 -5.044 3.998 -4.062 3 C-3.517 2.443 -2.972 1.886 -2.41 1.312 C-1 0 -1 0 0 0 Z " fill="#16191A" transform="translate(207,291)"/>
<path d="M0 0 C3.162 2.108 3.576 2.768 5.062 6.062 C7.541 11.256 10.38 16.18 13.312 21.125 C13.77 21.896 14.227 22.667 14.698 23.461 C15.796 25.309 16.898 27.155 18 29 C15 29 15 29 13.246 27.645 C12.649 27.04 12.052 26.435 11.438 25.812 C10.838 25.221 10.239 24.629 9.621 24.02 C8 22 8 22 7.105 19.656 C5.643 16.142 3.341 13.53 0.875 10.688 C0.173 9.863 0.173 9.863 -0.543 9.021 C-1.69 7.676 -2.844 6.337 -4 5 C-3.34 4.67 -2.68 4.34 -2 4 C-1.34 4.33 -0.68 4.66 0 5 C0 3.35 0 1.7 0 0 Z " fill="#307C37" transform="translate(201,236)"/>
<path d="M0 0 C0 2.64 0 5.28 0 8 C-0.639 7.196 -1.279 6.391 -1.938 5.562 C-3.406 3.725 -3.406 3.725 -5 2 C-7.333 1.959 -9.667 1.958 -12 2 C-12.33 3.32 -12.66 4.64 -13 6 C-10.69 7.65 -8.38 9.3 -6 11 C-6.99 11.495 -6.99 11.495 -8 12 C-8.656 14.527 -8.656 14.527 -9 17 C-15.494 13.633 -15.494 13.633 -17.5 11.125 C-18.229 8.026 -17.95 6.039 -17 3 C-12.668 -2.826 -6.388 -0.937 0 0 Z " fill="#171A1B" transform="translate(150,288)"/>
<path d="M0 0 C0 4.245 -2.496 5.947 -5.312 8.812 C-9.104 12.673 -11.657 16.052 -14 21 C-15.754 23.336 -15.754 23.336 -17.562 25.375 C-18.162 26.063 -18.761 26.752 -19.379 27.461 C-21 29 -21 29 -23 29 C-21.336 24.41 -19.029 20.293 -16.625 16.062 C-16.238 15.372 -15.852 14.682 -15.453 13.971 C-13.129 9.856 -10.672 5.898 -8 2 C-7.67 2.99 -7.34 3.98 -7 5 C-3.665 3.888 -2.363 2.526 0 0 Z " fill="#2B7C39" transform="translate(254,238)"/>
<path d="M0 0 C0.33 0 0.66 0 1 0 C1 6.27 1 12.54 1 19 C10.57 19 20.14 19 30 19 C30 12.73 30 6.46 30 0 C30.66 0 31.32 0 32 0 C32.029 3.312 32.047 6.625 32.062 9.938 C32.071 10.883 32.079 11.829 32.088 12.803 C32.091 13.702 32.094 14.601 32.098 15.527 C32.103 16.36 32.108 17.193 32.114 18.051 C32 20 32 20 31 21 C28.708 21.088 26.414 21.107 24.121 21.098 C23.091 21.096 23.091 21.096 22.04 21.093 C19.839 21.088 17.638 21.075 15.438 21.062 C13.949 21.057 12.46 21.053 10.971 21.049 C7.314 21.039 3.657 21.019 0 21 C0 14.07 0 7.14 0 0 Z " fill="#436F23" transform="translate(210,132)"/>
<path d="M0 0 C0.66 0.33 1.32 0.66 2 1 C2.625 4.062 2.625 4.062 3 7 C3.99 7.33 4.98 7.66 6 8 C7.538 10.23 8.069 11.414 7.75 14.125 C7 16 7 16 5 18 C5.66 18 6.32 18 7 18 C7.33 19.98 7.66 21.96 8 24 C4.407 20.834 2.667 16.792 0.5 12.594 C-0.837 10.282 -2.094 8.818 -4 7 C-4.688 4.812 -4.688 4.812 -5 3 C-7.31 2.67 -9.62 2.34 -12 2 C-12.062 2.619 -12.124 3.238 -12.188 3.875 C-13 6 -13 6 -15.562 7.25 C-16.367 7.498 -17.171 7.745 -18 8 C-16.817 4.45 -16.032 3.198 -13 1 C-9.971 0.661 -7.035 0.767 -4 1 C-3.67 2.32 -3.34 3.64 -3 5 C-1.68 5 -0.36 5 1 5 C0.67 3.35 0.34 1.7 0 0 Z " fill="#EC9008" transform="translate(182,191)"/>
<path d="M0 0 C1.938 1.625 1.938 1.625 3 4 C2.78 7.673 2.63 9.37 0 12 C-3.103 12.33 -5.158 12.505 -7.875 10.875 C-9.529 8.119 -9.394 6.149 -9 3 C-6.798 -0.669 -4.01 -0.585 0 0 Z " fill="#313232" transform="translate(184,324)"/>
<path d="M0 0 C3.062 0.312 3.062 0.312 4.938 1.438 C6.591 4.193 6.456 6.163 6.062 9.312 C4.938 11.188 4.938 11.188 3.062 12.312 C0.062 12.75 0.062 12.75 -2.938 12.312 C-4.875 10.688 -4.875 10.688 -5.938 8.312 C-5.649 3.506 -5.26 0.56 0 0 Z " fill="#303231" transform="translate(318.9375,323.6875)"/>
<path d="M0 0 C1.938 1.625 1.938 1.625 3 4 C2.78 7.673 2.63 9.37 0 12 C-3.103 12.33 -5.158 12.505 -7.875 10.875 C-9.529 8.119 -9.394 6.149 -9 3 C-6.798 -0.669 -4.01 -0.585 0 0 Z " fill="#292B2A" transform="translate(252,324)"/>
<path d="M0 0 C1.938 1.625 1.938 1.625 3 4 C2.78 7.673 2.63 9.37 0 12 C-3.103 12.33 -5.158 12.505 -7.875 10.875 C-9.529 8.119 -9.394 6.149 -9 3 C-6.798 -0.669 -4.01 -0.585 0 0 Z " fill="#383939" transform="translate(215,324)"/>
<path d="M0 0 C0.99 0.66 1.98 1.32 3 2 C3.293 5.258 3.293 5.258 3.188 9.125 C3.16 10.406 3.133 11.688 3.105 13.008 C3.071 13.995 3.036 14.983 3 16 C1.68 16 0.36 16 -1 16 C-1 13.69 -1 11.38 -1 9 C-1.66 8.67 -2.32 8.34 -3 8 C-2.67 6.02 -2.34 4.04 -2 2 C-3.65 2 -5.3 2 -7 2 C-6.67 3.65 -6.34 5.3 -6 7 C-7.65 7.33 -9.3 7.66 -11 8 C-11.25 5.688 -11.25 5.688 -11 3 C-7.862 -0.64 -4.571 -0.416 0 0 Z " fill="#2F3030" transform="translate(313,296)"/>
<path d="M0 0 C0.824 0.265 0.824 0.265 1.665 0.535 C4.171 1.339 6.679 2.138 9.188 2.938 C10.484 3.354 10.484 3.354 11.807 3.779 C12.648 4.047 13.489 4.314 14.355 4.59 C15.51 4.959 15.51 4.959 16.688 5.336 C31.677 9.643 50.09 8.134 65 4 C64.67 5.32 64.34 6.64 64 8 C62.701 7.979 61.401 7.959 60.062 7.938 C58.708 7.916 57.352 7.929 56 8 C55.67 8.33 55.34 8.66 55 9 C37.802 11.753 16.938 10.839 1 3 C0.67 2.01 0.34 1.02 0 0 Z " fill="#FEF9C2" transform="translate(188,276)"/>
<path d="M0 0 C0.33 0 0.66 0 1 0 C1.505 3.083 2.003 6.166 2.5 9.25 C2.643 10.123 2.786 10.995 2.934 11.895 C3.069 12.739 3.204 13.583 3.344 14.453 C3.469 15.228 3.595 16.003 3.725 16.802 C4 19 4 19 4 23 C9.28 23 14.56 23 20 23 C19.67 24.98 19.34 26.96 19 29 C18.67 27.68 18.34 26.36 18 25 C13.38 25 8.76 25 4 25 C4 25.99 4 26.98 4 28 C3.34 28 2.68 28 2 28 C-0.463 21.382 -0.189 14.996 0 8 C-0.66 8 -1.32 8 -2 8 C-2 6.35 -2 4.7 -2 3 C-1.34 3 -0.68 3 0 3 C0 2.01 0 1.02 0 0 Z " fill="#B89523" transform="translate(214,211)"/>
<path d="M0 0 C1.98 0 3.96 0 6 0 C6 0.66 6 1.32 6 2 C6.66 2.33 7.32 2.66 8 3 C7.67 3.33 7.34 3.66 7 4 C6.901 6.144 6.87 8.291 6.875 10.438 C6.871 12.199 6.871 12.199 6.867 13.996 C6.792 16.924 6.792 16.924 8 19 C5.03 19 2.06 19 -1 19 C-0.67 18.34 -0.34 17.68 0 17 C0.072 14.116 0.093 11.258 0.062 8.375 C0.058 7.573 0.053 6.771 0.049 5.945 C0.037 3.964 0.019 1.982 0 0 Z " fill="#0B0C0E" transform="translate(278,297)"/>
<path d="M0 0 C0.66 0 1.32 0 2 0 C1.548 5.915 0.842 11.352 -1 17 C-1.33 17 -1.66 17 -2 17 C-2.33 15.02 -2.66 13.04 -3 11 C-8.445 10.505 -8.445 10.505 -14 10 C-14.66 12.97 -15.32 15.94 -16 19 C-16.66 19 -17.32 19 -18 19 C-18.217 19.897 -18.217 19.897 -18.438 20.812 C-18.887 22.562 -19.429 24.287 -20 26 C-20.66 26 -21.32 26 -22 26 C-22 27.65 -22 29.3 -22 31 C-22.66 31 -23.32 31 -24 31 C-24.103 31.598 -24.206 32.196 -24.312 32.812 C-25.089 35.282 -26.071 36.323 -28 38 C-26.378 31.068 -23.169 25.42 -19.375 19.438 C-17.485 16.086 -16.29 12.624 -15 9 C-10.71 9 -6.42 9 -2 9 C-2.66 7.68 -3.32 6.36 -4 5 C-2.68 5.33 -1.36 5.66 0 6 C0 4.02 0 2.04 0 0 Z " fill="#EAD32A" transform="translate(307,210)"/>
<path d="M0 0 C0.99 0 1.98 0 3 0 C3.674 1.267 4.339 2.539 5 3.812 C5.557 4.874 5.557 4.874 6.125 5.957 C7 8 7 8 7 11 C3.7 11 0.4 11 -3 11 C-3.33 13.31 -3.66 15.62 -4 18 C-3.01 18.33 -2.02 18.66 -1 19 C-3.97 19 -6.94 19 -10 19 C-9.407 18.326 -8.814 17.652 -8.203 16.957 C-5.789 13.717 -4.25 10.404 -2.75 6.688 C-2.482 6.042 -2.214 5.397 -1.938 4.732 C-1.284 3.158 -0.641 1.579 0 0 Z " fill="#343434" transform="translate(255,297)"/>
<path d="M0 0 C1.32 0.33 2.64 0.66 4 1 C3.34 1.66 2.68 2.32 2 3 C2.763 3.206 3.526 3.412 4.312 3.625 C7.896 5.459 8.55 7.304 10 11 C10.688 13.875 10.688 13.875 11 16 C5.342 14.491 5.342 14.491 3.562 11.938 C2.013 9.594 2.013 9.594 -1.688 9.25 C-2.781 9.167 -3.874 9.085 -5 9 C-4.67 8.01 -4.34 7.02 -4 6 C-3.01 6 -2.02 6 -1 6 C-0.67 4.02 -0.34 2.04 0 0 Z " fill="#E5900C" transform="translate(160,199)"/>
<path d="M0 0 C0.66 0 1.32 0 2 0 C3.336 4.842 4.253 8.934 4 14 C4.66 14 5.32 14 6 14 C6.05 18.356 6.086 22.712 6.11 27.068 C6.12 28.545 6.133 30.021 6.151 31.498 C6.285 43.092 5.954 54.299 1 65 C-0.485 65.495 -0.485 65.495 -2 66 C-1.818 65.441 -1.636 64.881 -1.449 64.305 C-0.585 61.549 0.215 58.78 1 56 C1.286 55.007 1.572 54.015 1.867 52.992 C5.789 37.491 5.183 21.565 0.875 6.238 C0 3 0 3 0 0 Z " fill="#FEFCC6" transform="translate(305,168)"/>
<path d="M0 0 C9.9 0 19.8 0 30 0 C29.67 1.98 29.34 3.96 29 6 C28.67 4.68 28.34 3.36 28 2 C19.42 2 10.84 2 2 2 C2.33 3.939 2.66 5.877 3 7.875 C3.898 13.646 4.237 19.171 4 25 C3.67 25 3.34 25 3 25 C2.494 21.959 1.995 18.918 1.5 15.875 C1.357 15.019 1.214 14.163 1.066 13.281 C0.931 12.443 0.796 11.605 0.656 10.742 C0.531 9.978 0.405 9.213 0.275 8.425 C-0.042 5.633 0 2.81 0 0 Z " fill="#42681B" transform="translate(211,183)"/>
<path d="M0 0 C0.33 0.66 0.66 1.32 1 2 C0.518 2.531 0.036 3.062 -0.461 3.609 C-1.093 4.316 -1.724 5.022 -2.375 5.75 C-3.001 6.446 -3.628 7.142 -4.273 7.859 C-5.875 9.845 -6.965 11.68 -8 14 C-7.34 14.33 -6.68 14.66 -6 15 C-6.631 15.626 -7.262 16.251 -7.912 16.896 C-10.249 19.216 -12.584 21.538 -14.917 23.862 C-15.928 24.868 -16.94 25.873 -17.952 26.877 C-19.407 28.319 -20.858 29.765 -22.309 31.211 C-23.183 32.08 -24.058 32.95 -24.959 33.845 C-27.035 35.828 -27.035 35.828 -28 38 C-28.66 37.67 -29.32 37.34 -30 37 C-17.641 21.868 -17.641 21.868 -14.473 18.262 C-12.285 15.764 -10.253 13.429 -8.562 10.562 C-6.178 6.652 -3.068 3.387 0 0 Z " fill="#BF9B2C" transform="translate(271,218)"/>
<path d="M0 0 C2.31 0 4.62 0 7 0 C7 0.66 7 1.32 7 2 C7.763 2.124 8.526 2.248 9.312 2.375 C11.254 2.704 13.196 3.047 15.109 3.512 C21.793 5.012 28.305 5.187 35.125 5.188 C36.074 5.188 37.024 5.189 38.002 5.19 C42.333 5.551 42.333 5.551 46 4 C48.057 3.681 50.116 3.488 52.188 3.281 C54.017 3.18 54.017 3.18 55 2 C57.671 1.859 60.324 1.958 63 2 C51.202 9.865 31.386 8.629 17.993 6.528 C3.552 3.552 3.552 3.552 0 0 Z " fill="#F2D02C" transform="translate(191,277)"/>
<path d="M0 0 C0.66 0.99 1.32 1.98 2 3 C4.059 3.724 4.059 3.724 6 4 C-0.229 8.476 -6.706 12.494 -14 15 C-14.66 14.67 -15.32 14.34 -16 14 C-14.812 12.5 -14.812 12.5 -13 11 C-10.312 10.812 -10.312 10.812 -8 11 C-8 10.34 -8 9.68 -8 9 C-7.01 9 -6.02 9 -5 9 C-5 8.34 -5 7.68 -5 7 C-16.55 7 -28.1 7 -40 7 C-40 6.67 -40 6.34 -40 6 C-27.46 6 -14.92 6 -2 6 C-1.34 4.02 -0.68 2.04 0 0 Z " fill="#E8D228" transform="translate(270,264)"/>
<path d="M0 0 C1.32 0.66 2.64 1.32 4 2 C4 7.28 4 12.56 4 18 C4.66 18.33 5.32 18.66 6 19 C3.03 19 0.06 19 -3 19 C-2.67 18.34 -2.34 17.68 -2 17 C-1.722 13.365 -1.553 9.731 -1.379 6.09 C-1.254 5.07 -1.129 4.051 -1 3 C-0.34 2.67 0.32 2.34 1 2 C0.67 1.34 0.34 0.68 0 0 Z " fill="#131617" transform="translate(191,297)"/>
<path d="M0 0 C6.93 0 13.86 0 21 0 C21 1.65 21 3.3 21 5 C20.67 4.01 20.34 3.02 20 2 C14.06 2 8.12 2 2 2 C2.532 8.693 3.104 15.346 4 22 C8.29 22 12.58 22 17 22 C17.33 21.34 17.66 20.68 18 20 C18 20.99 18 21.98 18 23 C13.05 23 8.1 23 3 23 C0.674 15.403 0.423 7.898 0 0 Z " fill="#436A1B" transform="translate(215,211)"/>
<path d="M0 0 C6.055 -0.195 6.055 -0.195 8 0 C8.66 0.66 9.32 1.32 10 2 C9.835 2.949 9.67 3.897 9.5 4.875 C8.967 8.206 9.201 9.248 11 12 C9.125 11.688 9.125 11.688 7 11 C6.34 10.01 5.68 9.02 5 8 C4.67 9.32 4.34 10.64 4 12 C2.68 11.67 1.36 11.34 0 11 C0 7.37 0 3.74 0 0 Z " fill="#787979" transform="translate(139,324)"/>
<path d="M0 0 C0.33 0 0.66 0 1 0 C0.67 5.61 0.34 11.22 0 17 C0.66 17 1.32 17 2 17 C2 15.68 2 14.36 2 13 C2.66 13 3.32 13 4 13 C4 12.01 4 11.02 4 10 C4.66 10.33 5.32 10.66 6 11 C5.67 11.99 5.34 12.98 5 14 C4.34 14 3.68 14 3 14 C3 15.32 3 16.64 3 18 C2.34 18 1.68 18 1 18 C1 19.32 1 20.64 1 22 C0.34 22 -0.32 22 -1 22 C-1 23.32 -1 24.64 -1 26 C-1.99 26 -2.98 26 -4 26 C-4.33 27.32 -4.66 28.64 -5 30 C-3.603 9.265 -3.603 9.265 0 0 Z " fill="#7FAA35" transform="translate(233,236)"/>
<path d="M0 0 C1.044 3.133 0.934 3.99 0 7 C0.99 6.67 1.98 6.34 3 6 C1.6 10.072 -0.451 13.474 -2.773 17.066 C-3.776 18.646 -4.684 20.286 -5.562 21.938 C-7 24 -7 24 -9.188 24.812 C-9.786 24.874 -10.384 24.936 -11 25 C-9.275 19.273 -6.574 14.412 -3.656 9.219 C-2.096 6.186 -0.982 3.26 0 0 Z " fill="#D79616" transform="translate(255,213)"/>
<path d="M0 0 C0.66 0.33 1.32 0.66 2 1 C2.485 7.3 2.485 7.3 0.312 10.438 C-2.4 12.27 -3.79 12.434 -7 12 C-8 11 -8 11 -8.312 8.645 C-8 6 -8 6 -6.25 4.199 C-5.507 3.7 -4.765 3.201 -4 2.688 C-3.257 2.176 -2.515 1.664 -1.75 1.137 C-1.173 0.762 -0.595 0.386 0 0 Z " fill="#1A1B1C" transform="translate(223,304)"/>
<path d="M0 0 C0.33 0 0.66 0 1 0 C1.228 2.051 1.456 4.102 1.684 6.152 C1.819 8.011 1.819 8.011 3 9 C3.072 10.853 3.084 12.708 3.062 14.562 C3.053 15.574 3.044 16.586 3.035 17.629 C3.024 18.411 3.012 19.194 3 20 C3.66 20 4.32 20 5 20 C5.056 21.216 5.056 21.216 5.113 22.457 C5.439 27.943 5.856 33.052 7.5 38.312 C9.654 45.394 9.733 52.652 10 60 C7 58 7 58 6.312 55.875 C6.209 55.256 6.106 54.637 6 54 C6.66 54 7.32 54 8 54 C7.525 51.041 7.045 48.083 6.562 45.125 C6.36 43.862 6.36 43.862 6.154 42.574 C6.022 41.769 5.89 40.963 5.754 40.133 C5.573 39.017 5.573 39.017 5.389 37.879 C5.068 35.921 5.068 35.921 4 34 C3.686 30.887 3.489 27.774 3.281 24.652 C3.289 22.08 3.289 22.08 2 21 C1.678 18.421 1.487 15.841 1.281 13.25 C1.238 11.033 1.238 11.033 0 10 C-0.072 8.314 -0.084 6.625 -0.062 4.938 C-0.053 4.018 -0.044 3.099 -0.035 2.152 C-0.024 1.442 -0.012 0.732 0 0 Z " fill="#80AF32" transform="translate(209,199)"/>
<path d="M0 0 C2 3 2 3 2.5 5.625 C2.665 6.409 2.83 7.192 3 8 C3.66 8.33 4.32 8.66 5 9 C4.67 9.66 4.34 10.32 4 11 C8.29 11 12.58 11 17 11 C17 11.66 17 12.32 17 13 C12.71 13 8.42 13 4 13 C4.66 14.98 5.32 16.96 6 19 C6 20.32 6 21.64 6 23 C6.66 23 7.32 23 8 23 C8 24.65 8 26.3 8 28 C4.928 24.505 3.657 20.62 2.312 16.25 C2.088 15.572 1.863 14.894 1.631 14.195 C0.103 9.309 -0.212 5.115 0 0 Z " fill="#EED32A" transform="translate(141,208)"/>
<path d="M0 0 C0 0.33 0 0.66 0 1 C-0.843 0.992 -0.843 0.992 -1.702 0.984 C-15.173 0.876 -28.553 1.183 -42 2 C-30.952 -5.365 -12.233 -2.595 0 0 Z " fill="#F4D43B" transform="translate(244,116)"/>
<path d="M0 0 C0.66 0 1.32 0 2 0 C4.682 5.364 5.315 9.01 5 15 C4.01 15.495 4.01 15.495 3 16 C0.5 13.826 -0.436 12.27 -1 9 C-1.66 9 -2.32 9 -3 9 C-2.01 6.03 -1.02 3.06 0 0 Z " fill="#111416" transform="translate(259,288)"/>
<path d="M0 0 C1.32 0 2.64 0 4 0 C3.563 4.85 1.546 6.966 -1.875 10.312 C-2.759 11.196 -3.644 12.079 -4.555 12.988 C-7 15 -7 15 -10 15 C-9.413 11.405 -8.016 9.584 -5.562 6.938 C-3.471 4.662 -1.723 2.585 0 0 Z " fill="#DC9416" transform="translate(273,217)"/>
<path d="M0 0 C2.172 1.074 2.172 1.074 4 3 C4.391 6.355 4.391 6.355 4.25 10.188 C4.214 11.46 4.178 12.732 4.141 14.043 C4.071 15.507 4.071 15.507 4 17 C3.67 17 3.34 17 3 17 C3 13.04 3 9.08 3 5 C1.68 5.99 0.36 6.98 -1 8 C-1.33 6.35 -1.66 4.7 -2 3 C-3.65 2.67 -5.3 2.34 -7 2 C-6.67 3.98 -6.34 5.96 -6 8 C-7.65 7.67 -9.3 7.34 -11 7 C-10.638 4.376 -10.173 3.18 -8.312 1.25 C-5.291 -0.383 -3.393 -0.424 0 0 Z " fill="#232526" transform="translate(167,296)"/>
<path d="M0 0 C6.75 -0.125 6.75 -0.125 9 1 C8.773 1.887 8.546 2.774 8.312 3.688 C7.945 7.578 8.731 8.914 11 12 C9.188 11.812 9.188 11.812 7 11 C5.25 8.438 5.25 8.438 4 6 C4.66 5.67 5.32 5.34 6 5 C6 4.01 6 3.02 6 2 C5.01 1.67 4.02 1.34 3 1 C3.33 4.63 3.66 8.26 4 12 C2.68 12 1.36 12 0 12 C0 8.04 0 4.08 0 0 Z " fill="#484A49" transform="translate(220,324)"/>
<path d="M0 0 C6.75 -0.125 6.75 -0.125 9 1 C8.773 1.887 8.546 2.774 8.312 3.688 C7.945 7.578 8.731 8.914 11 12 C9.188 11.812 9.188 11.812 7 11 C5.25 8.438 5.25 8.438 4 6 C4.66 5.67 5.32 5.34 6 5 C6 4.01 6 3.02 6 2 C5.01 1.67 4.02 1.34 3 1 C3.33 4.63 3.66 8.26 4 12 C2.68 12 1.36 12 0 12 C0 8.04 0 4.08 0 0 Z " fill="#4D4F4E" transform="translate(257,324)"/>
<path d="M0 0 C0.887 0.103 1.774 0.206 2.688 0.312 C2.688 2.952 2.688 5.593 2.688 8.312 C3.347 8.312 4.007 8.312 4.688 8.312 C5.878 13.693 6.979 18.765 6.688 24.312 C2.247 17.652 1.234 9.181 1.688 1.312 C-2.813 2.727 -5.052 4.974 -8.312 8.312 C-10.595 10.066 -12.938 11.683 -15.312 13.312 C-13.803 9.47 -11.544 7.793 -8.312 5.312 C-7.508 4.405 -6.704 3.498 -5.875 2.562 C-3.312 0.312 -3.312 0.312 0 0 Z " fill="#A9A424" transform="translate(201.3125,163.6875)"/>
<path d="M0 0 C0 3.694 -1.282 5.778 -3 9 C-1.68 8.67 -0.36 8.34 1 8 C-0.538 11.164 -2.224 14.213 -4 17.25 C-4.516 18.142 -5.031 19.034 -5.562 19.953 C-6.037 20.629 -6.511 21.304 -7 22 C-7.66 22 -8.32 22 -9 22 C-8.412 18.976 -7.773 15.982 -7 13 C-6.34 13 -5.68 13 -5 13 C-4.814 11.422 -4.814 11.422 -4.625 9.812 C-4.085 6.521 -3.483 3.965 -2 1 C-1.34 0.67 -0.68 0.34 0 0 Z " fill="#B89D22" transform="translate(247,229)"/>
<path d="M0 0 C0.33 0.66 0.66 1.32 1 2 C-0.98 2 -2.96 2 -5 2 C-5.33 2.99 -5.66 3.98 -6 5 C-7.648 6.03 -9.315 7.031 -11 8 C-11.33 8.66 -11.66 9.32 -12 10 C-9.36 10 -6.72 10 -4 10 C-4 10.33 -4 10.66 -4 11 C-8.29 11 -12.58 11 -17 11 C-13.035 3.07 -9.089 -1.116 0 0 Z " fill="#237029" transform="translate(162,208)"/>
<path d="M0 0 C7.92 0.33 15.84 0.66 24 1 C24 3.97 24 6.94 24 10 C23.01 10.495 23.01 10.495 22 11 C22 8.36 22 5.72 22 3 C14.74 3 7.48 3 0 3 C0 2.01 0 1.02 0 0 Z " fill="#9F9733" transform="translate(214,208)"/>
<path d="M0 0 C1.32 0.33 2.64 0.66 4 1 C4 2.32 4 3.64 4 5 C5.92 6.774 5.92 6.774 8 8 C6.886 8.309 5.772 8.619 4.625 8.938 C1.205 9.823 1.205 9.823 -1 11 C-1 9.35 -1 7.7 -1 6 C-1.33 6.33 -1.66 6.66 -2 7 C-3.181 7.864 -4.369 8.716 -5.562 9.562 C-6.203 10.018 -6.844 10.473 -7.504 10.941 C-7.998 11.291 -8.491 11.64 -9 12 C-9.33 11.34 -9.66 10.68 -10 10 C-2.75 2.75 -2.75 2.75 1 2 C0.67 1.34 0.34 0.68 0 0 Z " fill="#C0911F" transform="translate(287,200)"/>
<path d="M0 0 C0.33 0.66 0.66 1.32 1 2 C-0.1 3.295 -1.205 4.586 -2.312 5.875 C-2.927 6.594 -3.542 7.314 -4.176 8.055 C-6 10 -6 10 -9 12 C-9.289 12.763 -9.577 13.526 -9.875 14.312 C-11.508 18.214 -14.199 21.099 -18 23 C-14.785 13.731 -7.689 5.889 0 0 Z " fill="#F5D332" transform="translate(169,135)"/>
<path d="M0 0 C0.66 0.33 1.32 0.66 2 1 C0.35 4.3 -1.3 7.6 -3 11 C-15.87 11 -28.74 11 -42 11 C-41.67 10.01 -41.34 9.02 -41 8 C-40.67 8.66 -40.34 9.32 -40 10 C-28.12 10 -16.24 10 -4 10 C-3.34 7.03 -2.68 4.06 -2 1 C-1.34 0.67 -0.68 0.34 0 0 Z " fill="#407817" transform="translate(271,259)"/>
<path d="M0 0 C3.536 0.536 3.536 0.536 5 2 C5.235 7.529 5.235 7.529 4 10 C-0.875 9.125 -0.875 9.125 -2 8 C-2.188 5.062 -2.188 5.062 -2 2 C-1.34 1.34 -0.68 0.68 0 0 Z " fill="#EDEDED" transform="translate(210,325)"/>
<path d="M0 0 C0.66 0.33 1.32 0.66 2 1 C2 1.99 2 2.98 2 4 C2.66 4 3.32 4 4 4 C4.248 4.825 4.495 5.65 4.75 6.5 C5.981 9.947 7.483 13.041 9.195 16.266 C10 18 10 18 10 20 C5.946 18.514 4.755 16.322 2.812 12.562 C2.303 11.594 1.794 10.626 1.27 9.629 C0 7 0 7 -1 4 C-0.34 4 0.32 4 1 4 C0.67 2.68 0.34 1.36 0 0 Z " fill="#CD991C" transform="translate(202,230)"/>
<path d="M0 0 C0.33 0 0.66 0 1 0 C1.531 2.915 2.05 5.832 2.562 8.75 C2.714 9.575 2.865 10.4 3.021 11.25 C3.16 12.049 3.299 12.848 3.441 13.672 C3.572 14.405 3.703 15.138 3.838 15.894 C4.135 19.754 2.796 22.647 1 26 C-0.214 22.358 -0.316 18.862 -0.5 15.062 C-0.732 8.955 -0.732 8.955 -2 3 C-1.34 3 -0.68 3 0 3 C0 2.01 0 1.02 0 0 Z " fill="#A99D29" transform="translate(218,236)"/>
<path d="M0 0 C2.438 0.375 2.438 0.375 5 1 C6.478 3.957 6.06 6.742 6 10 C0.408 8.663 0.408 8.663 -1.5 5.562 C-2 3 -2 3 0 0 Z " fill="#138046" transform="translate(195,231)"/>
<path d="M0 0 C4.229 1.747 5.31 3.806 7.184 7.824 C8.339 10.904 8.727 13.727 9 17 C8.34 17 7.68 17 7 17 C5.539 14.353 5 13.106 5 10 C4.01 9.67 3.02 9.34 2 9 C1.67 7.02 1.34 5.04 1 3 C0.34 3 -0.32 3 -1 3 C-0.67 2.01 -0.34 1.02 0 0 Z " fill="#EE9007" transform="translate(188,206)"/>
<path d="M0 0 C1.675 0.286 3.344 0.618 5 1 C5 3.64 5 6.28 5 9 C3.344 9.382 1.675 9.714 0 10 C-1 9 -1 9 -1.133 7.188 C-1.13 6.466 -1.128 5.744 -1.125 5 C-1.128 4.278 -1.13 3.556 -1.133 2.812 C-1 1 -1 1 0 0 Z " fill="#F6F8F6" transform="translate(317,325)"/>
<path d="M0 0 C1.675 0.286 3.344 0.618 5 1 C5 3.64 5 6.28 5 9 C3.344 9.382 1.675 9.714 0 10 C-1 9 -1 9 -1.133 7.188 C-1.13 6.466 -1.128 5.744 -1.125 5 C-1.128 4.278 -1.13 3.556 -1.133 2.812 C-1 1 -1 1 0 0 Z " fill="#F4F5F5" transform="translate(247,325)"/>
<path d="M0 0 C1.675 0.286 3.344 0.618 5 1 C5 3.64 5 6.28 5 9 C3.344 9.382 1.675 9.714 0 10 C-1 9 -1 9 -1.133 7.188 C-1.13 6.466 -1.128 5.744 -1.125 5 C-1.128 4.278 -1.13 3.556 -1.133 2.812 C-1 1 -1 1 0 0 Z " fill="#F6F7F7" transform="translate(179,325)"/>
<path d="M0 0 C4.025 3.906 7.688 8.036 11.312 12.312 C12.137 13.28 12.137 13.28 12.979 14.268 C14.321 15.843 15.661 17.421 17 19 C16.67 19.66 16.34 20.32 16 21 C13.126 18.27 10.279 15.513 7.438 12.75 C6.618 11.973 5.799 11.195 4.955 10.395 C4.185 9.64 3.415 8.886 2.621 8.109 C1.904 7.418 1.186 6.727 0.447 6.015 C-1 4 -1 4 -0.726 1.743 C-0.487 1.168 -0.247 0.593 0 0 Z " fill="#B59A2F" transform="translate(192,235)"/>
<path d="M0 0 C0.66 0.33 1.32 0.66 2 1 C1.505 1.433 1.01 1.866 0.5 2.312 C-1.332 3.997 -1.332 3.997 -1 7 C-0.01 7.66 0.98 8.32 2 9 C-1 11 -1 11 -3.688 10.625 C-4.451 10.419 -5.214 10.212 -6 10 C-6.33 8.35 -6.66 6.7 -7 5 C-2.25 1.125 -2.25 1.125 0 0 Z " fill="#131616" transform="translate(308,305)"/>
<path d="M0 0 C0.33 0 0.66 0 1 0 C1.395 3.081 1.762 6.165 2.125 9.25 C2.237 10.123 2.349 10.995 2.465 11.895 C2.562 12.739 2.658 13.583 2.758 14.453 C2.852 15.228 2.946 16.003 3.043 16.802 C2.993 19.355 2.288 20.822 1 23 C-0.442 20.116 -0.094 17.583 -0.062 14.375 C-0.053 13.186 -0.044 11.998 -0.035 10.773 C-0.024 9.858 -0.012 8.943 0 8 C-0.66 8 -1.32 8 -2 8 C-2 6.35 -2 4.7 -2 3 C-1.34 3 -0.68 3 0 3 C0 2.01 0 1.02 0 0 Z " fill="#BC9B21" transform="translate(214,211)"/>
<path d="M0 0 C0.33 0 0.66 0 1 0 C1 1.98 1 3.96 1 6 C-6.26 6 -13.52 6 -21 6 C-21 5.34 -21 4.68 -21 4 C-14.4 4 -7.8 4 -1 4 C-0.67 2.68 -0.34 1.36 0 0 Z " fill="#196628" transform="translate(236,203)"/>
<path d="M0 0 C1.32 0.33 2.64 0.66 4 1 C3.34 1.66 2.68 2.32 2 3 C4.475 3.99 4.475 3.99 7 5 C7 5.99 7 6.98 7 8 C5.68 8 4.36 8 3 8 C2.67 8.66 2.34 9.32 2 10 C-0.31 9.67 -2.62 9.34 -5 9 C-4.67 8.01 -4.34 7.02 -4 6 C-3.01 6 -2.02 6 -1 6 C-0.67 4.02 -0.34 2.04 0 0 Z " fill="#C7931B" transform="translate(160,199)"/>
<path d="M0 0 C1.98 0 3.96 0 6 0 C6.66 1.32 7.32 2.64 8 4 C5.69 3.01 3.38 2.02 1 1 C1.012 1.855 1.023 2.709 1.035 3.59 C1.044 4.695 1.053 5.799 1.062 6.938 C1.074 8.04 1.086 9.142 1.098 10.277 C1 13 1 13 0 14 C-0.231 15.347 -0.412 16.704 -0.562 18.062 C-0.707 19.362 -0.851 20.661 -1 22 C-1.66 22 -2.32 22 -3 22 C-3 25.3 -3 28.6 -3 32 C-3.33 32 -3.66 32 -4 32 C-4 28.04 -4 24.08 -4 20 C-3.34 20 -2.68 20 -2 20 C-2.021 18.721 -2.041 17.442 -2.062 16.125 C-2.125 12.25 -2.125 12.25 -1 10 C-0.774 8.296 -0.591 6.587 -0.438 4.875 C-0.312 3.51 -0.312 3.51 -0.184 2.117 C-0.123 1.419 -0.062 0.72 0 0 Z " fill="#90AA2D" transform="translate(246,164)"/>
<path d="M0 0 C6 0 6 0 8 1 C7.67 2.65 7.34 4.3 7 6 C6.34 5.67 5.68 5.34 5 5 C5 4.01 5 3.02 5 2 C4.34 1.67 3.68 1.34 3 1 C3 4.63 3 8.26 3 12 C2.01 12 1.02 12 0 12 C0 8.04 0 4.08 0 0 Z " fill="#373839" transform="translate(165,324)"/>
<path d="M0 0 C1.682 0 3.364 0.012 5.046 0.032 C6.374 0.036 6.374 0.036 7.728 0.04 C10.561 0.052 13.393 0.077 16.226 0.102 C18.144 0.112 20.062 0.121 21.98 0.129 C26.687 0.151 31.394 0.186 36.101 0.227 C36.101 0.557 36.101 0.887 36.101 1.227 C23.891 1.557 11.681 1.887 -0.899 2.227 C-0.899 2.887 -0.899 3.547 -0.899 4.227 C-3.374 3.237 -3.374 3.237 -5.899 2.227 C-3.899 0.227 -3.899 0.227 0 0 Z " fill="#E2D42A" transform="translate(185.89892578125,269.77294921875)"/>
<path d="M0 0 C0.33 0 0.66 0 1 0 C1 2.64 1 5.28 1 8 C0.34 8 -0.32 8 -1 8 C-0.979 9.258 -0.959 10.516 -0.938 11.812 C-0.891 14.641 -1.083 16.249 -2 19 C-2.144 20.334 -2.246 21.672 -2.316 23.012 C-2.358 23.769 -2.4 24.526 -2.443 25.307 C-2.483 26.092 -2.522 26.878 -2.562 27.688 C-2.627 28.883 -2.627 28.883 -2.693 30.104 C-2.799 32.069 -2.9 34.034 -3 36 C-3.33 36 -3.66 36 -4 36 C-4.469 23.29 -3.808 12.17 0 0 Z " fill="#F1D341" transform="translate(144,172)"/>
<path d="M0 0 C1.98 0 3.96 0 6 0 C6.66 0.66 7.32 1.32 8 2 C7.625 4.125 7.625 4.125 7 6 C6.34 5.67 5.68 5.34 5 5 C5 4.01 5 3.02 5 2 C4.34 1.67 3.68 1.34 3 1 C3 4.63 3 8.26 3 12 C2.01 12 1.02 12 0 12 C0 8.04 0 4.08 0 0 Z " fill="#343535" transform="translate(233,324)"/>
<path d="M0 0 C0.33 0 0.66 0 1 0 C1 4.29 1 8.58 1 13 C-0.32 13 -1.64 13 -3 13 C-3 10.69 -3 8.38 -3 6 C-3.66 5.67 -4.32 5.34 -5 5 C-4.34 5 -3.68 5 -3 5 C-2.67 4.01 -2.34 3.02 -2 2 C-1.34 1.34 -0.68 0.68 0 0 Z " fill="#0E1110" transform="translate(315,299)"/>
<path d="M0 0 C0.99 0 1.98 0 3 0 C3 3.96 3 7.92 3 12 C3.99 12.33 4.98 12.66 6 13 C6 13.33 6 13.66 6 14 C3.03 14 0.06 14 -3 14 C-2.34 13.34 -1.68 12.68 -1 12 C-0.536 9.108 -0.536 9.108 -0.375 5.875 C-0.3 4.779 -0.225 3.684 -0.148 2.555 C-0.099 1.712 -0.05 0.869 0 0 Z " fill="#191D1D" transform="translate(280,302)"/>
<path d="M0 0 C2.834 3.203 3.521 5.781 4 10 C1.36 10 -1.28 10 -4 10 C-3.524 8.52 -3.044 7.041 -2.562 5.562 C-2.296 4.739 -2.029 3.915 -1.754 3.066 C-1 1 -1 1 0 0 Z " fill="#E5E6E6" transform="translate(257,297)"/>
<path d="M0 0 C-0.33 1.32 -0.66 2.64 -1 4 C-2.299 3.979 -3.599 3.959 -4.938 3.938 C-6.292 3.916 -7.648 3.929 -9 4 C-9.33 4.33 -9.66 4.66 -10 5 C-11.781 5.087 -13.565 5.107 -15.348 5.098 C-16.427 5.094 -17.507 5.091 -18.619 5.088 C-19.755 5.08 -20.892 5.071 -22.062 5.062 C-23.203 5.058 -24.343 5.053 -25.518 5.049 C-28.345 5.037 -31.173 5.021 -34 5 C-34 4.67 -34 4.34 -34 4 C-32.779 3.963 -31.559 3.925 -30.301 3.887 C-21.369 3.551 -13.036 2.928 -4.371 0.621 C-2 0 -2 0 0 0 Z " fill="#FDF5B6" transform="translate(253,280)"/>
<path d="M0 0 C0.981 3.053 0.981 4.947 0 8 C-0.66 8 -1.32 8 -2 8 C-2.217 8.897 -2.217 8.897 -2.438 9.812 C-2.887 11.562 -3.429 13.287 -4 15 C-4.66 15 -5.32 15 -6 15 C-6 16.65 -6 18.3 -6 20 C-6.66 20 -7.32 20 -8 20 C-8.103 20.598 -8.206 21.196 -8.312 21.812 C-9.089 24.282 -10.071 25.323 -12 27 C-10.366 20.018 -7.106 14.353 -3.312 8.312 C-1.792 5.633 -0.89 2.943 0 0 Z " fill="#D0B71E" transform="translate(291,221)"/>
<path d="M0 0 C3.559 2.254 4.544 4.118 6 8 C6.536 8.536 7.072 9.072 7.625 9.625 C8.079 10.079 8.532 10.532 9 11 C9 11.99 9 12.98 9 14 C8.01 14.33 7.02 14.66 6 15 C3.69 12.69 1.38 10.38 -1 8 C-0.34 7.67 0.32 7.34 1 7 C1.66 7.33 2.32 7.66 3 8 C2.691 7.237 2.381 6.474 2.062 5.688 C1.321 3.812 0.638 1.913 0 0 Z " fill="#D39116" transform="translate(168,207)"/>
<path d="M0 0 C3.3 0 6.6 0 10 0 C9.67 0.66 9.34 1.32 9 2 C8.01 1.67 7.02 1.34 6 1 C6.33 4.63 6.66 8.26 7 12 C5.68 12 4.36 12 3 12 C3 8.37 3 4.74 3 1 C2.01 1.33 1.02 1.66 0 2 C0 1.34 0 0.68 0 0 Z " fill="#48494A" transform="translate(282,324)"/>
<path d="M0 0 C1.253 1.88 2.486 3.774 3.688 5.688 C5.887 8.34 5.887 8.34 9.562 8.562 C13.054 8.342 13.054 8.342 14.938 6 C15.288 5.34 15.639 4.68 16 4 C16.043 5.666 16.041 7.334 16 9 C15 10 15 10 11.621 10.098 C10.227 10.091 8.832 10.079 7.438 10.062 C6.371 10.056 6.371 10.056 5.283 10.049 C3.522 10.037 1.761 10.019 0 10 C0 6.7 0 3.4 0 0 Z " fill="#262727" transform="translate(132,306)"/>
<path d="M0 0 C0.33 0.66 0.66 1.32 1 2 C0.518 2.531 0.036 3.062 -0.461 3.609 C-1.093 4.316 -1.724 5.022 -2.375 5.75 C-3.001 6.446 -3.628 7.142 -4.273 7.859 C-5.875 9.845 -6.965 11.68 -8 14 C-7.34 14.33 -6.68 14.66 -6 15 C-6.952 16.006 -7.912 17.005 -8.875 18 C-9.409 18.557 -9.942 19.114 -10.492 19.688 C-12 21 -12 21 -14 21 C-13.704 20.416 -13.407 19.832 -13.102 19.23 C-12.441 17.893 -11.803 16.544 -11.211 15.176 C-8.518 9.173 -4.513 4.732 0 0 Z " fill="#AF9125" transform="translate(271,218)"/>
<path d="M0 0 C0.33 0 0.66 0 1 0 C1.145 8.264 0.41 15.392 -3 23 C-3.99 23.33 -4.98 23.66 -6 24 C-5.818 23.441 -5.636 22.881 -5.449 22.305 C-3.148 14.965 -1.531 7.534 0 0 Z " fill="#FEF8BF" transform="translate(309,210)"/>
<path d="M0 0 C0.33 0.99 0.66 1.98 1 3 C1.66 3 2.32 3 3 3 C2.385 8.009 1.728 13.006 1 18 C0.34 18 -0.32 18 -1 18 C-1.099 11.889 -1.071 6.026 0 0 Z " fill="#AD9B26" transform="translate(239,189)"/>
<path d="M0 0 C1.32 0 2.64 0 4 0 C4.33 0.99 4.66 1.98 5 3 C5.99 3.66 6.98 4.32 8 5 C4.778 7.148 3.722 7.294 0 7 C-1 6 -1 6 -1.125 3.5 C-1 1 -1 1 0 0 Z " fill="#151718" transform="translate(157,309)"/>
<path d="M0 0 C2.572 1.286 3.01 2.334 4 5 C3.648 7.99 3.173 8.827 1 11 C1.66 11 2.32 11 3 11 C3.33 12.98 3.66 14.96 4 17 C1.594 14.815 0.205 12.741 -1.188 9.812 C-1.532 9.097 -1.876 8.382 -2.23 7.645 C-2.484 7.102 -2.738 6.559 -3 6 C-2.34 5.67 -1.68 5.34 -1 5 C-1 5.66 -1 6.32 -1 7 C-0.34 7 0.32 7 1 7 C0.67 4.69 0.34 2.38 0 0 Z " fill="#D39719" transform="translate(186,198)"/>
<path d="M0 0 C0.66 0.33 1.32 0.66 2 1 C1.86 2.646 1.713 4.292 1.562 5.938 C1.481 6.854 1.4 7.771 1.316 8.715 C1 11 1 11 0 12 C-3 12.125 -3 12.125 -6 12 C-7 11 -7 11 -7.098 8.715 C-7.086 7.798 -7.074 6.882 -7.062 5.938 C-7.053 5.018 -7.044 4.099 -7.035 3.152 C-7.024 2.442 -7.012 1.732 -7 1 C-6.34 1 -5.68 1 -5 1 C-4.67 3.97 -4.34 6.94 -4 10 C-3.01 10 -2.02 10 -1 10 C-0.67 6.7 -0.34 3.4 0 0 Z " fill="#4B4C4C" transform="translate(160,324)"/>
<path d="M0 0 C0.33 0 0.66 0 1 0 C1 1.98 1 3.96 1 6 C2.65 6 4.3 6 6 6 C5.033 6.29 5.033 6.29 4.047 6.586 C1.656 7.887 1.656 7.887 1.391 11.039 C1.344 12.222 1.298 13.406 1.25 14.625 C1.193 15.814 1.137 17.002 1.078 18.227 C1.052 19.142 1.027 20.057 1 21 C0.67 21 0.34 21 0 21 C-0.33 17.37 -0.66 13.74 -1 10 C-1.66 10 -2.32 10 -3 10 C-2.39 6.442 -1.422 3.317 0 0 Z " fill="#0A0D0E" transform="translate(206,291)"/>
<path d="M0 0 C0 1.65 0 3.3 0 5 C-0.639 5.268 -1.279 5.536 -1.938 5.812 C-4.331 6.887 -4.331 6.887 -5 10 C-5.99 10 -6.98 10 -8 10 C-8 9.01 -8 8.02 -8 7 C-7.34 7 -6.68 7 -6 7 C-5.897 6.402 -5.794 5.804 -5.688 5.188 C-4.72 2.109 -3.392 0 0 0 Z " fill="#06824E" transform="translate(255,233)"/>
<path d="M0 0 C2.248 3.372 3.921 6.901 5.625 10.562 C5.95 11.248 6.275 11.933 6.609 12.639 C9 17.756 9 17.756 9 20 C8.01 20 7.02 20 6 20 C5.651 19.073 5.301 18.146 4.941 17.191 C4.259 15.395 4.259 15.395 3.562 13.562 C3.11 12.368 2.658 11.173 2.191 9.941 C1.286 7.156 1.286 7.156 0 6 C-0.041 4 -0.043 2 0 0 Z " fill="#FEF8C0" transform="translate(143,224)"/>
<path d="M0 0 C0.66 0.33 1.32 0.66 2 1 C-1.63 7.27 -5.26 13.54 -9 20 C-10.431 17.138 -9.6 15.066 -9 12 C-8.01 12 -7.02 12 -6 12 C-5.34 9.69 -4.68 7.38 -4 5 C-3.34 5 -2.68 5 -2 5 C-1.34 3.35 -0.68 1.7 0 0 Z " fill="#C79623" transform="translate(271,194)"/>
<path d="M0 0 C2.143 3.477 2.213 6.212 2.125 10.25 C2.107 11.328 2.089 12.405 2.07 13.516 C2.047 14.335 2.024 15.155 2 16 C1.34 16 0.68 16 0 16 C-1.435 11.515 -2.433 7.765 -2 3 C-1.34 2.01 -0.68 1.02 0 0 Z " fill="#CE9919" transform="translate(212,198)"/>
<path d="M0 0 C-2 2 -2 2 -4.625 2.125 C-5.409 2.084 -6.192 2.043 -7 2 C-6.34 3.65 -5.68 5.3 -5 7 C-6.65 7.33 -8.3 7.66 -10 8 C-10.33 6.68 -10.66 5.36 -11 4 C-7.263 0.483 -5.135 -0.478 0 0 Z " fill="#2A2C2B" transform="translate(226,296)"/>
<path d="M0 0 C2.406 2.185 3.795 4.259 5.188 7.188 C5.532 7.903 5.876 8.618 6.23 9.355 C6.484 9.898 6.738 10.441 7 11 C4.092 9.685 1.994 8.266 -0.25 6 C-0.771 5.484 -1.292 4.969 -1.828 4.438 C-3 3 -3 3 -3 1 C-2.01 0.67 -1.02 0.34 0 0 Z " fill="#508338" transform="translate(212,255)"/>
<path d="M0 0 C2.653 2.476 4.68 4.59 6 8 C6 8.99 6 9.98 6 11 C5.01 11 4.02 11 3 11 C1.395 9.25 1.395 9.25 -0.188 7 C-0.717 6.257 -1.247 5.515 -1.793 4.75 C-2.191 4.173 -2.59 3.595 -3 3 C-1 2 -1 2 0 2 C0 1.34 0 0.68 0 0 Z " fill="#317A35" transform="translate(206,245)"/>
<path d="M0 0 C4.589 3.606 8.322 7.474 12 12 C11.67 12.66 11.34 13.32 11 14 C9.68 13.01 8.36 12.02 7 11 C6.67 11.99 6.34 12.98 6 14 C4.5 12.625 4.5 12.625 3 11 C3 10.34 3 9.68 3 9 C3.66 9 4.32 9 5 9 C4.546 8.257 4.093 7.515 3.625 6.75 C2.314 4.531 1.117 2.32 0 0 Z " fill="#C29625" transform="translate(172,212)"/>
<path d="M0 0 C1.65 0 3.3 0 5 0 C5 1.98 5 3.96 5 6 C2.688 7.125 2.688 7.125 0 8 C-0.99 7.34 -1.98 6.68 -3 6 C-2.01 5.67 -1.02 5.34 0 5 C0 3.35 0 1.7 0 0 Z " fill="#F0F1F1" transform="translate(306,298)"/>
<path d="M0 0 C1.32 0 2.64 0 4 0 C4.33 2.97 4.66 5.94 5 9 C3.35 8.67 1.7 8.34 0 8 C0 5.36 0 2.72 0 0 Z " fill="#121315" transform="translate(224,297)"/>
<path d="M0 0 C0.33 1.32 0.66 2.64 1 4 C1.66 4 2.32 4 3 4 C3.33 5.65 3.66 7.3 4 9 C0.185 6.538 0.185 6.538 -0.75 3.812 C-0.874 2.915 -0.874 2.915 -1 2 C-3.31 1.67 -5.62 1.34 -8 1 C-8.062 1.619 -8.124 2.238 -8.188 2.875 C-9 5 -9 5 -11.562 6.25 C-12.367 6.498 -13.171 6.745 -14 7 C-11.494 -0.519 -7.061 -0.543 0 0 Z " fill="#A5922B" transform="translate(178,192)"/>
<path d="M0 0 C1.666 -0.043 3.334 -0.041 5 0 C6 1 6 1 6.062 3.562 C6.042 4.367 6.021 5.171 6 6 C4.35 6.66 2.7 7.32 1 8 C0.67 5.36 0.34 2.72 0 0 Z " fill="#ECEEEE" transform="translate(160,298)"/>
<path d="M0 0 C0.639 0.248 1.279 0.495 1.938 0.75 C2.268 1.74 2.597 2.73 2.938 3.75 C1.947 3.75 0.958 3.75 -0.062 3.75 C-0.062 8.37 -0.062 12.99 -0.062 17.75 C-0.393 17.75 -0.722 17.75 -1.062 17.75 C-1.062 12.8 -1.062 7.85 -1.062 2.75 C-2.382 3.08 -3.702 3.41 -5.062 3.75 C-4.732 2.76 -4.403 1.77 -4.062 0.75 C-2.062 -0.25 -2.062 -0.25 0 0 Z " fill="#4B4C4D" transform="translate(190.0625,296.25)"/>
<path d="M0 0 C1.707 1.281 3.374 2.618 5 4 C5 4.66 5 5.32 5 6 C0.71 6 -3.58 6 -8 6 C-8 5.34 -8 4.68 -8 4 C-5.03 4 -2.06 4 1 4 C0.67 2.68 0.34 1.36 0 0 Z " fill="#487D15" transform="translate(300,213)"/>
<path d="M0 0 C0.66 0.33 1.32 0.66 2 1 C1.67 3.31 1.34 5.62 1 8 C-1.64 8 -4.28 8 -7 8 C-5.71 6.624 -4.373 5.292 -3 4 C-2.34 4 -1.68 4 -1 4 C-0.67 2.68 -0.34 1.36 0 0 Z " fill="#036E3E" transform="translate(157,209)"/>
<path d="M0 0 C2.125 0.938 2.125 0.938 4 2 C3.67 3.65 3.34 5.3 3 7 C0.03 6.505 0.03 6.505 -3 6 C-2.625 3.562 -2.625 3.562 -2 1 C-1.34 0.67 -0.68 0.34 0 0 Z " fill="#111516" transform="translate(144,299)"/>
<path d="M0 0 C1.666 -0.043 3.334 -0.041 5 0 C6 1 6 1 6.062 3.562 C6.042 4.367 6.021 5.171 6 6 C4.35 6.66 2.7 7.32 1 8 C1.021 7.237 1.041 6.474 1.062 5.688 C1.129 2.898 1.129 2.898 0 0 Z " fill="#F2F3F3" transform="translate(219,298)"/>
<path d="M0 0 C0.33 0 0.66 0 1 0 C1.219 6.025 0.452 11.168 -1 17 C-1.34 18.665 -1.677 20.331 -2 22 C-2.33 22 -2.66 22 -3 22 C-2.885 19.457 -2.759 16.917 -2.625 14.375 C-2.594 13.662 -2.563 12.949 -2.531 12.215 C-2.29 7.828 -1.607 4.141 0 0 Z " fill="#90A83A" transform="translate(233,236)"/>
<path d="M0 0 C0.66 0.33 1.32 0.66 2 1 C2 3.64 2 6.28 2 9 C3.65 9.33 5.3 9.66 7 10 C7 10.33 7 10.66 7 11 C1.6 11.36 1.6 11.36 -0.875 9.875 C-2.505 7.158 -2.33 5.103 -2 2 C-1.34 1.34 -0.68 0.68 0 0 Z " fill="#2D2E2F" transform="translate(195,325)"/>
<path d="M0 0 C1.32 0.66 2.64 1.32 4 2 C4 6.62 4 11.24 4 16 C3.67 16 3.34 16 3 16 C3 12.04 3 8.08 3 4 C1.68 4.99 0.36 5.98 -1 7 C-1.043 5 -1.041 3 -1 1 C-0.67 0.67 -0.34 0.34 0 0 Z " fill="#070A0C" transform="translate(167,297)"/>
<path d="M0 0 C2.051 0.033 4.102 0.065 6.152 0.098 C0.554 3.83 -5.303 4.37 -11.848 4.098 C-11.518 3.438 -11.188 2.778 -10.848 2.098 C-9.035 1.719 -9.035 1.719 -6.848 1.535 C-4.156 1.3 -2.431 0.128 0 0 Z " fill="#F5D02A" transform="translate(247.84765625,278.90234375)"/>
<path d="M0 0 C0.99 0.33 1.98 0.66 3 1 C1.717 3.862 0.469 6.025 -2 8 C-2.99 8 -3.98 8 -5 8 C-4.458 4.204 -2.799 2.528 0 0 Z " fill="#DA9519" transform="translate(268,224)"/>
<path d="M0 0 C0.33 0 0.66 0 1 0 C1.228 2.051 1.456 4.102 1.684 6.152 C1.819 8.011 1.819 8.011 3 9 C3.072 10.853 3.084 12.708 3.062 14.562 C3.053 15.574 3.044 16.586 3.035 17.629 C3.024 18.411 3.012 19.194 3 20 C3.66 20 4.32 20 5 20 C5 21.65 5 23.3 5 25 C2.323 21.929 1.602 19.859 1.375 15.812 C1.43 12.6 1.43 12.6 0 10 C-0.072 8.314 -0.084 6.625 -0.062 4.938 C-0.053 4.018 -0.044 3.099 -0.035 2.152 C-0.024 1.442 -0.012 0.732 0 0 Z " fill="#8CAC2F" transform="translate(209,199)"/>
<path d="M0 0 C0.66 0.33 1.32 0.66 2 1 C1.67 2.65 1.34 4.3 1 6 C-0.32 6 -1.64 6 -3 6 C-3.33 7.32 -3.66 8.64 -4 10 C-5.32 10 -6.64 10 -8 10 C-7.66 6.825 -6.975 5.977 -4.562 3.75 C-2 2 -2 2 0 2 C0 1.34 0 0.68 0 0 Z " fill="#EC910B" transform="translate(285,205)"/>
<path d="M0 0 C0.99 0.33 1.98 0.66 3 1 C2.794 1.908 2.588 2.815 2.375 3.75 C1.987 7.11 2.196 8.241 4 11 C2.125 10.812 2.125 10.812 0 10 C-1.375 7.75 -1.375 7.75 -2 5 C-1.125 2.188 -1.125 2.188 0 0 Z " fill="#2C2E2E" transform="translate(146,325)"/>
<path d="M0 0 C0.66 0.33 1.32 0.66 2 1 C0.384 3.041 -1.286 5.041 -3 7 C-3.66 7 -4.32 7 -5 7 C-5 7.66 -5 8.32 -5 9 C-4.01 9.33 -3.02 9.66 -2 10 C-2 10.66 -2 11.32 -2 12 C-3.65 11.67 -5.3 11.34 -7 11 C-6.699 7.387 -6.291 6.255 -3.5 3.812 C-2.675 3.214 -1.85 2.616 -1 2 C-0.67 1.34 -0.34 0.68 0 0 Z " fill="#BF9F1C" transform="translate(184,177)"/>
<path d="M0 0 C0 2.31 0 4.62 0 7 C-1.32 7.33 -2.64 7.66 -4 8 C-4.75 6.25 -4.75 6.25 -5 4 C-1.667 0 -1.667 0 0 0 Z " fill="#E4E6E8" transform="translate(166,305)"/>
<path d="M0 0 C3.96 0.33 7.92 0.66 12 1 C12 3.64 12 6.28 12 9 C11.505 8.237 11.01 7.474 10.5 6.688 C7.233 3.175 4.537 2.437 0 1 C0 0.67 0 0.34 0 0 Z " fill="#333434" transform="translate(138,287)"/>
<path d="M0 0 C0.66 0 1.32 0 2 0 C2 0.66 2 1.32 2 2 C2.66 2 3.32 2 4 2 C4.944 3.79 5.888 5.581 6.832 7.371 C7.99 9.323 7.99 9.323 11 10 C11.33 11.65 11.66 13.3 12 15 C6.287 10.802 3.069 6.364 0 0 Z " fill="#F3D02E" transform="translate(153,244)"/>
<path d="M0 0 C1.32 0.33 2.64 0.66 4 1 C3.67 2.32 3.34 3.64 3 5 C0.03 4.505 0.03 4.505 -3 4 C-1.68 3.34 -0.36 2.68 1 2 C0.67 1.34 0.34 0.68 0 0 Z M1 5 C3.31 5.66 5.62 6.32 8 7 C8 7.33 8 7.66 8 8 C5.69 8.33 3.38 8.66 1 9 C1 7.68 1 6.36 1 5 Z " fill="#BC8F1E" transform="translate(287,200)"/>
<path d="M0 0 C1.32 0 2.64 0 4 0 C4.99 3.3 5.98 6.6 7 10 C6.01 10.495 6.01 10.495 5 11 C3.35 7.37 1.7 3.74 0 0 Z " fill="#272728" transform="translate(300,324)"/>
<path d="M0 0 C2.479 2.201 3.612 4.064 4.688 7.188 C4.939 7.903 5.19 8.618 5.449 9.355 C5.631 9.898 5.813 10.441 6 11 C4.68 11 3.36 11 2 11 C1.47 9.545 0.951 8.086 0.438 6.625 C0.147 5.813 -0.143 5.001 -0.441 4.164 C-1 2 -1 2 0 0 Z " fill="#292B2A" transform="translate(274,325)"/>
<path d="M0 0 C0.99 0 1.98 0 3 0 C2.773 0.887 2.546 1.774 2.312 2.688 C1.945 6.578 2.731 7.914 5 11 C3.188 10.812 3.188 10.812 1 10 C-0.75 7.438 -0.75 7.438 -2 5 C-1.34 4.67 -0.68 4.34 0 4 C0 2.68 0 1.36 0 0 Z " fill="#232524" transform="translate(226,325)"/>
<path d="M0 0 C0 2.31 0 4.62 0 7 C-1.32 7.33 -2.64 7.66 -4 8 C-4.75 6.25 -4.75 6.25 -5 4 C-1.667 0 -1.667 0 0 0 Z " fill="#E8EAEB" transform="translate(225,305)"/>
<path d="M0 0 C0.66 0.99 1.32 1.98 2 3 C4.059 3.724 4.059 3.724 6 4 C0.25 8 0.25 8 -2 8 C-1.125 2.25 -1.125 2.25 0 0 Z " fill="#EBD128" transform="translate(270,264)"/>
<path d="M0 0 C0 3.74 -0.934 4.453 -3.375 7.188 C-4.315 8.261 -4.315 8.261 -5.273 9.355 C-7 11 -7 11 -9 11 C-7.758 7.561 -6.443 4.748 -4 2 C-3.34 2 -2.68 2 -2 2 C-1.34 1.34 -0.68 0.68 0 0 Z " fill="#56863B" transform="translate(240,256)"/>
<path d="M0 0 C0.33 0 0.66 0 1 0 C3.143 7.429 3.143 7.429 4 11 C3.443 10.361 2.886 9.721 2.312 9.062 C-0.221 6.803 -1.683 6.369 -5 6 C-3.358 3.979 -1.691 1.98 0 0 Z " fill="#2E7931" transform="translate(166,197)"/>
<path d="M0 0 C0 2.31 0 4.62 0 7 C-1.32 7.33 -2.64 7.66 -4 8 C-4.75 6.25 -4.75 6.25 -5 4 C-1.667 0 -1.667 0 0 0 Z " fill="#E7E8E8" transform="translate(311,305)"/>
<path d="M0 0 C0.99 0.33 1.98 0.66 3 1 C3 2.65 3 4.3 3 6 C1.35 6.33 -0.3 6.66 -2 7 C-2.125 4.625 -2.125 4.625 -2 2 C-1.34 1.34 -0.68 0.68 0 0 Z " fill="#1B1C1C" transform="translate(304,297)"/>
<path d="M0 0 C0.33 0 0.66 0 1 0 C1.25 1.58 1.474 3.164 1.688 4.75 C1.879 6.073 1.879 6.073 2.074 7.422 C1.984 10.557 1.074 11.718 -1 14 C-1.934 11.198 -2.164 9.346 -2.188 6.438 C-2.202 5.652 -2.216 4.867 -2.23 4.059 C-2 2 -2 2 0 0 Z " fill="#919E2B" transform="translate(220,248)"/>
<path d="M0 0 C0 3.606 -0.817 4.413 -3 7.188 C-3.557 7.903 -4.114 8.618 -4.688 9.355 C-5.121 9.898 -5.554 10.441 -6 11 C-7.125 7.25 -7.125 7.25 -6 5 C-5.01 5 -4.02 5 -3 5 C-3 3.68 -3 2.36 -3 1 C-2.01 0.67 -1.02 0.34 0 0 Z " fill="#F3D229" transform="translate(296,244)"/>
<path d="M0 0 C0 1.667 0 3.333 0 5 C2.64 5.33 5.28 5.66 8 6 C8 6.33 8 6.66 8 7 C3.71 7 -0.58 7 -5 7 C-3.383 3.765 -2.524 2.294 0 0 Z " fill="#5F8614" transform="translate(150,212)"/>
<path d="M0 0 C2.55 1.275 2.66 2.185 3.625 4.812 C3.885 5.5 4.146 6.187 4.414 6.895 C5 9 5 9 5 13 C4.34 13 3.68 13 3 13 C1.539 10.353 1 9.106 1 6 C0.34 5.67 -0.32 5.34 -1 5 C-0.34 5 0.32 5 1 5 C0.67 3.35 0.34 1.7 0 0 Z " fill="#E6920A" transform="translate(192,210)"/>
<path d="M0 0 C0.66 0 1.32 0 2 0 C1.527 4.255 -0.925 6.225 -4 9 C-4.99 9.495 -4.99 9.495 -6 10 C-4.633 6.013 -2.848 3.115 0 0 Z " fill="#F6D22A" transform="translate(157,148)"/>
<path d="M0 0 C0.66 0 1.32 0 2 0 C1.773 0.887 1.546 1.774 1.312 2.688 C0.945 6.578 1.731 7.914 4 11 C2.188 10.812 2.188 10.812 0 10 C-1.75 7.438 -1.75 7.438 -3 5 C-2.34 4.67 -1.68 4.34 -1 4 C-0.348 1.975 -0.348 1.975 0 0 Z " fill="#1D1F1E" transform="translate(264,325)"/>
<path d="M0 0 C1.663 3.326 -0.019 6.684 -0.938 10.125 C-1.133 10.879 -1.328 11.633 -1.529 12.41 C-2.013 14.275 -2.506 16.138 -3 18 C-3.33 18 -3.66 18 -4 18 C-3.913 15.749 -3.805 13.499 -3.688 11.25 C-3.629 9.997 -3.571 8.744 -3.512 7.453 C-2.995 3.969 -2.375 2.521 0 0 Z " fill="#FEFABD" transform="translate(144,170)"/>
<path d="M0 0 C0.66 0.33 1.32 0.66 2 1 C2 3.97 2 6.94 2 10 C0.68 9.34 -0.64 8.68 -2 8 C-2.125 5.125 -2.125 5.125 -2 2 C-1.34 1.34 -0.68 0.68 0 0 Z " fill="#1E201F" transform="translate(127,325)"/>
<path d="M0 0 C1.32 0 2.64 0 4 0 C5.765 3.088 6 4.233 6 8 C5.34 8 4.68 8 4 8 C2.68 5.36 1.36 2.72 0 0 Z " fill="#B69E27" transform="translate(210,250)"/>
<path d="M0 0 C1.32 0.33 2.64 0.66 4 1 C3.301 4.147 2.239 7.026 1 10 C0.67 10 0.34 10 0 10 C0 6.7 0 3.4 0 0 Z " fill="#EAECEB" transform="translate(260,325)"/>
<path d="M0 0 C0.33 0.99 0.66 1.98 1 3 C3.015 3.733 3.015 3.733 5 4 C3 6 3 6 0.375 6.125 C-0.409 6.084 -1.192 6.043 -2 6 C-2.33 5.01 -2.66 4.02 -3 3 C-2.01 2.01 -1.02 1.02 0 0 Z " fill="#232525" transform="translate(228,310)"/>
<path d="M0 0 C0.33 0.99 0.66 1.98 1 3 C0.506 3.482 0.013 3.964 -0.496 4.461 C-1.137 5.093 -1.777 5.724 -2.438 6.375 C-3.076 7.001 -3.714 7.628 -4.371 8.273 C-6.079 9.917 -6.079 9.917 -7 12 C-7.66 11.67 -8.32 11.34 -9 11 C-6.03 7.37 -3.06 3.74 0 0 Z " fill="#A8A041" transform="translate(250,244)"/>
<path d="M0 0 C1.938 0.562 1.938 0.562 4 2 C4.75 5.625 4.75 5.625 5 9 C4.34 8.67 3.68 8.34 3 8 C3 7.34 3 6.68 3 6 C2.34 6 1.68 6 1 6 C0.34 4.35 -0.32 2.7 -1 1 C-0.67 0.67 -0.34 0.34 0 0 Z " fill="#0B8049" transform="translate(202,241)"/>
<path d="M0 0 C-0.66 0 -1.32 0 -2 0 C-2 0.66 -2 1.32 -2 2 C-10.036 4.277 -10.036 4.277 -14 3 C-12.423 2.299 -10.838 1.614 -9.25 0.938 C-8.368 0.555 -7.487 0.172 -6.578 -0.223 C-3.847 -1.046 -2.631 -0.977 0 0 Z " fill="#F4D439" transform="translate(202,119)"/>
<path d="M0 0 C1.132 0.908 2.255 1.827 3.375 2.75 C4.001 3.26 4.628 3.771 5.273 4.297 C7.083 6.082 8.001 7.679 9 10 C6.003 9.001 4.973 8.349 3 6 C3 5.34 3 4.68 3 4 C1.68 3.67 0.36 3.34 -1 3 C-0.67 2.01 -0.34 1.02 0 0 Z " fill="#2D6C26" transform="translate(202,250)"/>
<path d="M0 0 C0.33 1.32 0.66 2.64 1 4 C0.34 4 -0.32 4 -1 4 C-1 6.64 -1 9.28 -1 12 C-1.66 12 -2.32 12 -3 12 C-3.081 10.376 -3.139 8.75 -3.188 7.125 C-3.222 6.22 -3.257 5.315 -3.293 4.383 C-3.196 3.596 -3.1 2.81 -3 2 C-2.01 1.34 -1.02 0.68 0 0 Z " fill="#CA9D1F" transform="translate(243,180)"/>
<path d="M0 0 C0.33 0.99 0.66 1.98 1 3 C1.66 3.33 2.32 3.66 3 4 C0.03 6.475 0.03 6.475 -3 9 C-2.443 5.656 -1.648 2.967 0 0 Z " fill="#3F7A2E" transform="translate(239,251)"/>
<path d="M0 0 C1.386 3.15 0.892 4.319 -0.25 7.688 C-2 11 -2 11 -5 12 C-3.41 7.965 -1.718 3.982 0 0 Z " fill="#FEF9C1" transform="translate(302,234)"/>
<path d="M0 0 C0.33 0 0.66 0 1 0 C1 2.64 1 5.28 1 8 C0.34 8 -0.32 8 -1 8 C-1 10.64 -1 13.28 -1 16 C-1.33 16 -1.66 16 -2 16 C-2.204 10.262 -2.271 5.395 0 0 Z " fill="#F4D12B" transform="translate(144,172)"/>
<path d="M0 0 C0.33 1.32 0.66 2.64 1 4 C0.34 4 -0.32 4 -1 4 C-0.917 4.743 -0.835 5.485 -0.75 6.25 C-1.071 9.782 -2.353 10.766 -5 13 C-4.548 11.394 -4.088 9.79 -3.625 8.188 C-3.37 7.294 -3.115 6.401 -2.852 5.48 C-2 3 -2 3 0 0 Z " fill="#F4D53F" transform="translate(150,158)"/>
<path d="M0 0 C0.33 0 0.66 0 1 0 C1.33 2.31 1.66 4.62 2 7 C3.65 7.33 5.3 7.66 7 8 C7 8.33 7 8.66 7 9 C1.462 9.369 1.462 9.369 -0.875 7.5 C-1.246 7.005 -1.618 6.51 -2 6 C-1.333 4 -0.667 2 0 0 Z " fill="#4B4D4C" transform="translate(245,327)"/>
<path d="M0 0 C1.32 0.66 2.64 1.32 4 2 C4 2.66 4 3.32 4 4 C-0.29 4 -4.58 4 -9 4 C-9 3.67 -9 3.34 -9 3 C-6.03 3 -3.06 3 0 3 C0 2.01 0 1.02 0 0 Z " fill="#106930" transform="translate(216,265)"/>
<path d="M0 0 C0.33 1.32 0.66 2.64 1 4 C0.34 4 -0.32 4 -1 4 C-1.155 4.897 -1.155 4.897 -1.312 5.812 C-2.089 8.282 -3.071 9.323 -5 11 C-3.923 6.692 -2.961 3.364 0 0 Z " fill="#D7CE25" transform="translate(284,237)"/>
<path d="M0 0 C0.66 0.33 1.32 0.66 2 1 C0.35 3.97 -1.3 6.94 -3 10 C-4 8 -4 8 -3.188 4.438 C-2 1 -2 1 0 0 Z " fill="#90AB2E" transform="translate(268,186)"/>
<path d="M0 0 C0.33 0.66 0.66 1.32 1 2 C-2.473 3.158 -5.361 3.069 -9 3 C-7.143 -0.713 -3.694 -0.1 0 0 Z " fill="#363837" transform="translate(293,296)"/>
<path d="M0 0 C0.66 0.33 1.32 0.66 2 1 C0.35 3.97 -1.3 6.94 -3 10 C-4.263 6.21 -3.497 4.625 -2 1 C-1.34 0.67 -0.68 0.34 0 0 Z " fill="#2A701B" transform="translate(271,259)"/>
<path d="M0 0 C0.66 0 1.32 0 2 0 C3.125 5.625 3.125 5.625 2 9 C1.34 9 0.68 9 0 9 C0 6.03 0 3.06 0 0 Z " fill="#C6991E" transform="translate(216,230)"/>
<path d="M0 0 C0 3 0 3 -1.375 4.688 C-3 6 -3 6 -5 6 C-5 4.68 -5 3.36 -5 2 C-3.35 1.34 -1.7 0.68 0 0 Z " fill="#DC9314" transform="translate(260,214)"/>
<path d="M0 0 C1.32 0.33 2.64 0.66 4 1 C3.688 2.938 3.688 2.938 3 5 C2.01 5.33 1.02 5.66 0 6 C0 4.02 0 2.04 0 0 Z " fill="#E7E9E8" transform="translate(223,325)"/>
<path d="M0 0 C2.667 2.667 5.333 5.333 8 8 C7.67 8.66 7.34 9.32 7 10 C5.824 8.905 4.66 7.799 3.5 6.688 C2.85 6.073 2.201 5.458 1.531 4.824 C0 3 0 3 0 0 Z " fill="#A2A040" transform="translate(201,246)"/>
<path d="M0 0 C0.66 1.32 1.32 2.64 2 4 C0.688 5.5 0.688 5.5 -1 7 C-1.99 7 -2.98 7 -4 7 C-2.796 4.506 -1.546 2.319 0 0 Z " fill="#337F37" transform="translate(256,223)"/>
<path d="M0 0 C0.309 0.639 0.619 1.279 0.938 1.938 C1.835 3.936 1.835 3.936 3 5 C3.041 7.333 3.042 9.667 3 12 C2.67 10.68 2.34 9.36 2 8 C1.34 8 0.68 8 0 8 C0 5.36 0 2.72 0 0 Z " fill="#D59910" transform="translate(204,164)"/>
<path d="M0 0 C0.99 0 1.98 0 3 0 C2.67 1.65 2.34 3.3 2 5 C0.02 5 -1.96 5 -4 5 C-2.68 4.67 -1.36 4.34 0 4 C0 2.68 0 1.36 0 0 Z " fill="#4E4E4E" transform="translate(133,331)"/>
<path d="M0 0 C0.66 0 1.32 0 2 0 C2.75 1.75 2.75 1.75 3 4 C1.062 6.25 1.062 6.25 -1 8 C-1.66 7.67 -2.32 7.34 -3 7 C-2.01 4.69 -1.02 2.38 0 0 Z " fill="#1F2122" transform="translate(259,288)"/>
<path d="M0 0 C2.062 0.438 2.062 0.438 4 1 C2.35 2.65 0.7 4.3 -1 6 C-1.043 4.334 -1.041 2.666 -1 1 C-0.67 0.67 -0.34 0.34 0 0 Z " fill="#D08F17" transform="translate(282,210)"/>
<path d="M0 0 C1.485 0.99 1.485 0.99 3 2 C3 3.32 3 4.64 3 6 C1.68 5.67 0.36 5.34 -1 5 C-0.67 3.35 -0.34 1.7 0 0 Z " fill="#F08F09" transform="translate(168,209)"/>
<path d="M0 0 C0.66 0 1.32 0 2 0 C2.66 1.65 3.32 3.3 4 5 C2.35 5 0.7 5 -1 5 C-0.67 3.35 -0.34 1.7 0 0 Z " fill="#BDBFBE" transform="translate(272,328)"/>
<path d="M0 0 C0.33 0.99 0.66 1.98 1 3 C-0.32 4.32 -1.64 5.64 -3 7 C-3.66 6.34 -4.32 5.68 -5 5 C-3.35 3.35 -1.7 1.7 0 0 Z " fill="#222424" transform="translate(205,292)"/>
<path d="M0 0 C2.188 0.312 2.188 0.312 4 1 C3.01 1.66 2.02 2.32 1 3 C0.67 3.99 0.34 4.98 0 6 C-0.66 6 -1.32 6 -2 6 C-2.33 5.01 -2.66 4.02 -3 3 C-1.75 1.438 -1.75 1.438 0 0 Z " fill="#121516" transform="translate(136,288)"/>
<path d="M0 0 C2 1.812 2 1.812 4 4 C4 4.99 4 5.98 4 7 C2.68 6.34 1.36 5.68 0 5 C0 3.333 0 1.667 0 0 Z " fill="#C29727" transform="translate(192,235)"/>
<path d="M0 0 C0.33 0 0.66 0 1 0 C1.33 2.97 1.66 5.94 2 9 C1.34 9 0.68 9 0 9 C-0.33 9.66 -0.66 10.32 -1 11 C-0.67 7.37 -0.34 3.74 0 0 Z " fill="#89962E" transform="translate(234,223)"/>
<path d="M0 0 C0.99 0 1.98 0 3 0 C2.67 2.64 2.34 5.28 2 8 C0 6 0 6 -0.125 2.875 C-0.084 1.926 -0.042 0.977 0 0 Z " fill="#A9A629" transform="translate(214,226)"/>
<path d="M0 0 C0.688 1.812 0.688 1.812 1 4 C-0.438 5.75 -0.438 5.75 -2 7 C-2.66 6.67 -3.32 6.34 -4 6 C-1.125 1.125 -1.125 1.125 0 0 Z " fill="#14692D" transform="translate(278,219)"/>
<path d="M0 0 C0.99 0 1.98 0 3 0 C2.625 1.938 2.625 1.938 2 4 C1.01 4.495 1.01 4.495 0 5 C-0.66 4.67 -1.32 4.34 -2 4 C-1.34 2.68 -0.68 1.36 0 0 Z " fill="#E19012" transform="translate(271,221)"/>
<path d="M0 0 C0.66 0.33 1.32 0.66 2 1 C1.67 2.65 1.34 4.3 1 6 C-0.32 6.33 -1.64 6.66 -3 7 C-2.691 6.402 -2.381 5.804 -2.062 5.188 C-0.898 2.91 -0.898 2.91 0 0 Z " fill="#EF9006" transform="translate(259,209)"/>
<path d="M0 0 C2.021 1.642 4.02 3.309 6 5 C6 5.33 6 5.66 6 6 C4.35 6 2.7 6 1 6 C0.67 4.02 0.34 2.04 0 0 Z " fill="#327631" transform="translate(283,197)"/>
</svg>